<svg xmlns="http://www.w3.org/2000/svg" width="220.086" height="80.151" viewBox="0 0 220.086 80.151">
	<g id="Group_22677" data-name="Group 22677" transform="translate(-742.807 -77.225)">
		<g id="Group_21340" data-name="Group 21340" transform="translate(-3000.631)">
			<path id="Path_44856" data-name="Path 44856"
				d="M3827.685,111.906a16.67,16.67,0,0,0,3.256,1.042l-.877,1.594a18.613,18.613,0,0,1-8.72-5.591,24.933,24.933,0,0,1-9.254,5.677l-.942-1.617a24.577,24.577,0,0,0,3.491-1.361l-2.313-1.53,1.026-1.382c.837.51,1.822,1.212,2.914,2.041a21.455,21.455,0,0,0,2.765-1.976h-4.156v-1.658h6.661c.194,0,.343.126.494.361l1.5,1.573c1.028-1.041,1.82-1.872,2.251-2.4l1.218,1.189c-.79.914-1.54,1.68-2.184,2.318l1.329.935a32.165,32.165,0,0,0,2.334-2.849l1.308,1.15Zm-10.862,12.288L3815.775,121H3814c-.279,0-.429-.125-.429-.443v-4.89a.391.391,0,0,1,.429-.448h14.075a.4.4,0,0,1,.449.448v4.89c0,.318-.149.443-.449.443h-2.164l-1.05,3.192h5.054v1.636h-17.929v-1.636Zm9.964-7.25c0-.062-.024-.085-.088-.085h-11.331c-.064,0-.087.023-.064.085v2.317c-.023.065,0,.084.064.107H3826.7l.088-.107Zm-9.62-4.633h7.883v1.637h-7.883Zm1.479,11.883h4.392l1.047-3.192H3817.6Z"
				fill="#685744" />
			<path id="Path_44857" data-name="Path 44857"
				d="M3832.588,124.874c2.806-2.742,6.533-6.486,8.633-15.328h-5.913V107.74h7.585c.363,0,.556.19.6.574,1.562,8.8,4.5,12.309,8.76,16.666l-1.564,1.064-1.99-2.213a27.873,27.873,0,0,1-6.194-12.457,35.9,35.9,0,0,1-8.4,14.542Z"
				fill="#685744" />
			<path id="Path_44858" data-name="Path 44858" d="M3854.95,125.575h-1.8l6.126-17.495h1.821Z" fill="#685744" />
			<path id="Path_44859" data-name="Path 44859"
				d="M3866.773,109.992h7.9v1.638h-7.9Zm2.121,15.093v.574h-1.651v-6.5c0-.362.173-.531.515-.531h5.955a.473.473,0,0,1,.535.531v5.38a.494.494,0,0,1-.556.55Zm-1.2-12.178h6.064v1.635h-6.064Zm0,2.89h6.064v1.637h-6.064Zm.088-8.631h5.8V108.8h-5.8Zm4.818,13.373c0-.193-.107-.281-.3-.281h-3.128c-.193,0-.278.088-.278.281v2.911h3.362c.236,0,.343-.108.343-.341Zm7.37,3.356v-5.824H3875.9V116.35h4.071v-5.338h-4.563v-1.721h4.563v-2.743h1.822v2.743h4.434v1.721h-4.434v5.338h4v1.721h-4v5.824h4.67v1.721h-11.312v-1.721Z"
				fill="#685744" />
			<path id="Path_44860" data-name="Path 44860"
				d="M3899.631,116.859h-3.3V126h-1.822v-9.142h-3.277v9.205h-1.821v-9.205h-1.371v-1.806h1.371v-7.4a.57.57,0,0,1,.643-.656h15.917a.585.585,0,0,1,.663.656v7.4h1.158v1.806h-1.158v7.25c0,1.55-.965,2.126-2.5,2.126a12.319,12.319,0,0,1-1.629-.129l-.193-2.02a6.008,6.008,0,0,0,1.587.34.938.938,0,0,0,.92-.935v-6.632h-3.364V126h-1.821Zm-5.12-1.806V108.8h-3.126c-.107,0-.151.041-.151.148v6.1Zm5.12,0V108.8h-3.3v6.25Zm1.821-6.25v6.25h3.364v-6.1c0-.107-.064-.148-.172-.148Z"
				fill="#685744" />
			<path id="Path_44861" data-name="Path 44861" d="M3910.51,125.575h-1.8l6.127-17.495h1.821Z" fill="#685744" />
			<path id="Path_44862" data-name="Path 44862"
				d="M3936.109,117.944a19.722,19.722,0,0,0,.984,2.615c1.48-.808,2.636-1.489,3.385-2l.815,1.53-3.3,1.915a13.311,13.311,0,0,0,3.921,2.975l-1.329,1.318-1.392-.936a12.686,12.686,0,0,1-4.756-7.418h-1.329v6.142a15.509,15.509,0,0,0,2.764-.828l.685,1.679a28.146,28.146,0,0,1-7.048,1.424l-.086-1.826,1.951-.192v-6.4h-1.221v2.444c0,2.02-2.292,1.914-2.85,1.893v4.039h-1.649V111.714h-1.071a.114.114,0,0,0-.129.128v10.14H3922.8V110.46a.339.339,0,0,1,.387-.381h2.464v-3.445h1.649v3.445h2.42c.278,0,.43.127.43.381v5.847h1.221V107.57c-.021-.256.085-.4.384-.4h9.277V108.8H3933.3c-.149,0-.214.064-.193.212v1.234h7.412v1.635h-7.412v1.339h7.5v1.638h-7.5v1.446h8.764v1.637Zm-8.8-6.23V120.6a1.445,1.445,0,0,0,.75-.127.835.835,0,0,0,.448-.742v-7.888c0-.085-.041-.128-.148-.128Z"
				fill="#685744" />
			<path id="Path_44863" data-name="Path 44863"
				d="M3946,119.6l-.192.617-1.543-.468c.3-1.022.665-2.4,1.028-4.125H3943.6v-1.659h7.455v1.659h-4.091l-.536,2.337h3.857c.277,0,.428.129.428.361,0,1.9-.794,6.761-2.465,7.356a3.6,3.6,0,0,1-1.306.256,7.127,7.127,0,0,1-2.612-.807l.064-1.787a14.52,14.52,0,0,0,2.507.681,1.142,1.142,0,0,0,.535-.149c.707-.34,1.434-3.019,1.434-4.144,0-.086-.064-.128-.214-.128Zm4.735-6.93a.227.227,0,0,1-.257.255h-6.191c-.151,0-.236-.085-.236-.255v-5.146a.213.213,0,0,1,.236-.233h6.191c.171,0,.257.084.257.233ZM3949,108.844h-3.236c-.063,0-.086.023-.063.064v2.362l.063.083H3949l.064-.083v-2.362Zm6.426,6.356h-2.056v1.935a18.426,18.426,0,0,1-2.037,9.163l-1.692-.872a15.728,15.728,0,0,0,1.992-7.653v-6.994c0-.319.131-.447.451-.447h3.15v-3.7h1.735v.956h5.228v1.638h-5.228v1.1h5.141l1.392.83a10.17,10.17,0,0,1-.836,3.72l-1.626-.381a9.188,9.188,0,0,0,.535-2.4c0-.108-.084-.151-.215-.128h-4.284v1.594h3.449V115.2h-3.449v.915a.959.959,0,0,0,.922.936h2.656a.974.974,0,0,0,.493-.192,7.126,7.126,0,0,0,.428-1.574l1.585.553a6.512,6.512,0,0,1-.621,2.189,1.719,1.719,0,0,1-1.179.662h-4.284a1.866,1.866,0,0,1-1.65-1.659Zm-.535,4.21h1.736v1.765a5.664,5.664,0,0,1-.195,1.4,5.441,5.441,0,0,1-2.912,3.721l-1.264-1.361a3.911,3.911,0,0,0,2.635-3.762Zm.535-5.846V111.97h-1.777a.26.26,0,0,0-.279.277v1.317Zm2.721,5.911h1.735v3.931c0,.979,1.2,1.168,1.756.766a11.782,11.782,0,0,0,.259-2.063l1.626.34a9.59,9.59,0,0,1-.47,2.893,1.768,1.768,0,0,1-1.2.659h-2.015a1.889,1.889,0,0,1-1.692-1.7Z"
				fill="#685744" />
		</g>
		<g id="Group_21354" data-name="Group 21354" transform="translate(-3000.631)">
			<path id="Path_44873" data-name="Path 44873"
				d="M3752.455,114.4a18.6,18.6,0,1,1-6.353,25.526A18.6,18.6,0,0,1,3752.455,114.4Z" fill="#767676"
				opacity="0.3" />
			<path id="Path_44874" data-name="Path 44874"
				d="M3774.667,79.333a14.729,14.729,0,1,1-5.029,20.212A14.728,14.728,0,0,1,3774.667,79.333Z"
				fill="#767676" opacity="0.3" />
			<path id="Path_44875" data-name="Path 44875"
				d="M3815.353,98.274a10.372,10.372,0,1,1-3.544,14.237A10.37,10.37,0,0,1,3815.353,98.274Z" fill="#767676"
				opacity="0.3" />
			<path id="Path_44876" data-name="Path 44876"
				d="M3819.771,133.12a6.661,6.661,0,1,1-2.275,9.142A6.658,6.658,0,0,1,3819.771,133.12Z" fill="#767676"
				opacity="0.3" />
			<path id="Path_44877" data-name="Path 44877"
				d="M3796.238,151.1a3.377,3.377,0,1,1-1.153,4.634A3.382,3.382,0,0,1,3796.238,151.1Z" fill="#767676"
				opacity="0.3" />
		</g>
	</g>
</svg>