<svg xmlns="http://www.w3.org/2000/svg" xmlns:xlink="http://www.w3.org/1999/xlink" width="536.271" height="207.054"
	viewBox="0 0 536.271 207.054">
	<defs>
		<clipPath id="clip-path">
			<path id="Path_47896" data-name="Path 47896"
				d="M4488.217,280.327a55.879,55.879,0,1,1-55.879-55.876A55.878,55.878,0,0,1,4488.217,280.327Z"
				fill="none" clip-rule="evenodd" />
		</clipPath>
	</defs>
	<path id="Path_7" data-name="Path 7"
		d="M4500.7,259.535a103.528,103.528,0,1,1-103.527-103.526A103.527,103.527,0,0,1,4500.7,259.535Z"
		transform="translate(-4293.648 -156.009)" fill="#ebebeb" />
	<g id="Group_5" data-name="Group 5" transform="translate(-4293.648 -156.009)">
		<g id="Group_22669" data-name="Group 22669" opacity="0.5">
			<g id="Group_22666" data-name="Group 22666">
				<path id="Path_47733" data-name="Path 47733"
					d="M4746.215,258.157a8.961,8.961,0,1,1-8.962-8.963A8.962,8.962,0,0,1,4746.215,258.157Z"
					fill="#dc000c" opacity="0.3" />
				<path id="Path_47734" data-name="Path 47734"
					d="M4723.58,273.43a6.311,6.311,0,1,1-6.311-6.312A6.312,6.312,0,0,1,4723.58,273.43Z" fill="#dc000c"
					opacity="0.3" />
				<path id="Path_47735" data-name="Path 47735"
					d="M4704.025,264.807a4.053,4.053,0,1,1-4.053-4.052A4.052,4.052,0,0,1,4704.025,264.807Z"
					fill="#dc000c" opacity="0.3" />
				<path id="Path_47736" data-name="Path 47736"
					d="M4702.028,246.9a2.055,2.055,0,1,1-2.055-2.054A2.056,2.056,0,0,1,4702.028,246.9Z" fill="#dc000c"
					opacity="0.3" />
			</g>
			<g id="Group_22667" data-name="Group 22667">
				<path id="Path_47737" data-name="Path 47737"
					d="M4560.381,277.449a21.166,21.166,0,1,1,29.035-7.275A21.168,21.168,0,0,1,4560.381,277.449Z"
					fill="#9d9e9e" opacity="0.3" />
				<path id="Path_47738" data-name="Path 47738"
					d="M4513.282,273.9a16.759,16.759,0,1,1,22.988-5.762A16.755,16.755,0,0,1,4513.282,273.9Z"
					fill="#9d9e9e" opacity="0.3" />
				<path id="Path_47739" data-name="Path 47739"
					d="M4510.54,222.906a11.8,11.8,0,1,1,16.191-4.058A11.8,11.8,0,0,1,4510.54,222.906Z" fill="#9d9e9e"
					opacity="0.3" />
				<path id="Path_47740" data-name="Path 47740"
					d="M4543.169,199.826a7.58,7.58,0,1,1,10.4-2.608A7.579,7.579,0,0,1,4543.169,199.826Z" fill="#9d9e9e"
					opacity="0.3" />
				<path id="Path_47741" data-name="Path 47741"
					d="M4573.824,213.838a3.841,3.841,0,1,1,5.268-1.321A3.843,3.843,0,0,1,4573.824,213.838Z"
					fill="#9d9e9e" opacity="0.3" />
			</g>
			<g id="Group_22668" data-name="Group 22668">
				<path id="Path_47742" data-name="Path 47742"
					d="M4730.415,227.437a18.6,18.6,0,1,1-6.353,25.525A18.6,18.6,0,0,1,4730.415,227.437Z" fill="#767676"
					opacity="0.3" />
				<path id="Path_47743" data-name="Path 47743"
					d="M4752.627,192.37a14.728,14.728,0,1,1-5.029,20.21A14.725,14.725,0,0,1,4752.627,192.37Z"
					fill="#767676" opacity="0.3" />
				<path id="Path_47744" data-name="Path 47744"
					d="M4793.313,211.311a10.372,10.372,0,1,1-3.544,14.237A10.37,10.37,0,0,1,4793.313,211.311Z"
					fill="#767676" opacity="0.3" />
				<path id="Path_47745" data-name="Path 47745"
					d="M4797.731,246.157a6.661,6.661,0,1,1-2.275,9.141A6.659,6.659,0,0,1,4797.731,246.157Z"
					fill="#767676" opacity="0.3" />
				<path id="Path_47746" data-name="Path 47746"
					d="M4774.2,264.14a3.377,3.377,0,1,1-1.153,4.636A3.381,3.381,0,0,1,4774.2,264.14Z" fill="#767676"
					opacity="0.3" />
			</g>
		</g>
		<g id="Group_22670" data-name="Group 22670">
			<path id="Path_47747" data-name="Path 47747"
				d="M4501.915,334.069v.856h-1.661V317.3a.505.505,0,0,1,.547-.569h15.731a.511.511,0,0,1,.566.569v17.622h-1.661v-.856Zm11.568-15.768.43,1.385h.9v1.568h-3.635a47.681,47.681,0,0,0,.8,4.87,26.253,26.253,0,0,0,1.23-3.931l1.467.406a19.444,19.444,0,0,1-2.15,5.6l.508,1.467c.175.429.293.673.351.673.235,0,.254-.919.254-1.385,0-.367-.019-.755-.039-1.163l1.467.408a10.259,10.259,0,0,1-.547,3.525,1.08,1.08,0,0,1-.958.63c-1.075,0-1.661-1.588-2.032-2.586a24.408,24.408,0,0,1-2.072,2.608l-1.29-1.02,1.094-1.12a32.574,32.574,0,0,1-6.31.917l-.332-1.629a34.429,34.429,0,0,0,6.681-1.02l.274,1.388,1.408-1.9a48.416,48.416,0,0,1-1.311-6.744h-6.858v-1.568h6.7l-.1-1.385h-7.269c-.195,0-.254.1-.234.245V332.48h13.522V318.546c0-.163-.078-.245-.233-.245Zm-4.4,9.413a.2.2,0,0,1-.213.222h-5.846c-.114,0-.173-.082-.173-.222v-4.971c0-.144.059-.2.173-.2h5.846c.135,0,.213.06.213.2Zm-1.582-3.769h-3.087c-.059,0-.079.02-.059.06v2.446l.059.06h3.087l.079-.06v-2.446Zm4.807-4.259-.469-1.385h-.937l.116,1.385Z"
				fill="#4e3b30" />
			<path id="Path_47748" data-name="Path 47748"
				d="M4530.034,332.56a75.826,75.826,0,0,0,2.461-10.978l1.679.447a102.848,102.848,0,0,1-2.363,10.531h5.294v1.732h-17.819V332.56Zm-2.639-13.912v-2.425h1.719v2.425h7.523v1.733h-16.883v-1.733Zm-3.557,12.832a57.173,57.173,0,0,0-2.109-9.41l1.679-.386a92.839,92.839,0,0,1,2.13,9.533Z"
				fill="#4e3b30" />
			<path id="Path_47749" data-name="Path 47749"
				d="M4541.891,325.064a20.508,20.508,0,0,0-3.066-2.017l.84-1.506a18.1,18.1,0,0,1,3.166,2.078Zm-3.066,8.9a38.81,38.81,0,0,0,2.872-7.557l1.6.449a42.8,42.8,0,0,1-2.97,7.882Zm3.4-13.749a19.389,19.389,0,0,0-3.205-2.3l.9-1.466a17.2,17.2,0,0,1,3.3,2.361Zm8.538,2.015h6.019v1.57H4543.5v-1.57h5.609v-1.058h-4.691v-1.426h4.691v-1.12h-5.375V317.2h5.375v-1.058h1.659V317.2h5.491v1.427h-5.491v1.12h4.883v1.426h-4.883Zm-4.688,9.717v2.893h-1.584v-9.654c0-.266.1-.39.351-.39H4555.3a.345.345,0,0,1,.39.39v7.922c0,1.691-1.523,1.957-2.579,1.957a10.962,10.962,0,0,1-2.131-.245l-.057-1.834a9.445,9.445,0,0,0,2.09.346c1.094,0,1.094-.651,1.094-1.385Zm0-4.359h8.029v-1.16c0-.08-.04-.123-.137-.123h-7.8c-.056,0-.095.043-.095.123Zm0,2.872h8.029v-1.385h-8.029Z"
				fill="#4e3b30" />
			<path id="Path_47750" data-name="Path 47750"
				d="M4570.087,318.709h-5.354v1.1h-1.66v-1.1h-4.631v-1.567h4.631v-1.081h1.66v1.081h5.354v-1.081h1.662v1.081h4.356v1.567h-4.356v1.182h-1.662Zm-3.575,13.608h-7.836v-1.569h7.836v-1.629H4559.2v-1.57h2.716v-1.994h-3.478v-1.59h3.478v-2H4559.2V320.4h16.218v1.568h-2.6v2h3.28v1.59h-3.28v1.994h2.518v1.57h-7.191v1.629h7.72v1.569h-7.72V335h-1.64Zm0-8.352v-2h-2.931v2Zm0,3.584v-1.994h-2.931v1.994Zm1.64-5.581v2h3.011v-2Zm0,3.587v1.994h3.011v-1.994Z"
				fill="#4e3b30" />
			<path id="Path_47751" data-name="Path 47751"
				d="M4593.436,334.089c-3.419-2.771-5.646-5.766-6.586-8.923l-.292.857a16.8,16.8,0,0,1-7.679,8.738l-1.233-1.468a14.168,14.168,0,0,0,8.093-11.061h-7.446V320.44h7.622l.056-1.018v-2.973h1.8v2.973l-.039,1.018h7.6v1.792h-7.386a9.7,9.7,0,0,0,.409,2.14q1.526,5.073,7.661,9.227l-1.5,1.326Z"
				fill="#4e3b30" />
			<path id="Path_47752" data-name="Path 47752"
				d="M4612.526,322.946v-.815h-2.852v-1.425h2.852v-.653h-2.852v-1.4h2.852V318c0-.1-.058-.165-.194-.165h-2.58v-1.426h3.928c.235,0,.352.123.352.367v6.172h.136l1.368.713a16.107,16.107,0,0,1-.765,3.911l-1.5-.468a12.193,12.193,0,0,0,.488-2.343c0-.162-.058-.244-.195-.244h-14.3a.146.146,0,0,0-.156.162v2.586h-1.582V323.23a.257.257,0,0,1,.292-.284h.9V316.8c-.02-.388.118-.388.9-.388a16.06,16.06,0,0,0,3.518-.386l.586,1.466a14.914,14.914,0,0,1-3.439.387c-.059,0-.077.062-.059.142v.632h2.756v1.4h-2.756v.734h2.834v1.427h-2.834v.732h7.7l-1.25-1.02a7.8,7.8,0,0,1-2.385.918l-.567-1.343a11.029,11.029,0,0,0,1.663-.49l-.824-.55.666-.956-.878.3-.666-1.264c.585-.2,1.114-.427,1.6-.652l-1-.55.683-1.2,1.642.937,1.192-1.059.92,1.039-.862.753.979.612-.783,1.159.723.958-.859.632,1,.836-.78.936Zm-9.5,9.677a4.972,4.972,0,0,0,2.657.875,1.3,1.3,0,0,0,1.368-1.3,3.745,3.745,0,0,0-.215-1.119h-8.481v-1.653H4606a8.57,8.57,0,0,0-.977-1.26h.917l2.718-1.264h-7.035V325.33h8.87l1.192,1.793-4.064,1.9.254.4h6.625v1.653h-5.9a3.286,3.286,0,0,1,.176,1.18,2.746,2.746,0,0,1-2.949,2.893,7.219,7.219,0,0,1-3.088-.836Zm2.4-13.221,1.29.916,1.193-.833-1.231-.8Z"
				fill="#4e3b30" />
			<path id="Path_47753" data-name="Path 47753"
				d="M4628.586,333.356H4626.2l-1.35-4.584h-4.572l-1.289,4.584h-2.326l4.572-15.584h2.776Zm-4.1-6.4-1.172-4.075c-.273-1.018-.527-2.118-.743-3.075h-.038c-.216.957-.449,2.1-.7,3.054l-1.192,4.1Z"
				fill="#4e3b30" />
			<path id="Path_47754" data-name="Path 47754" d="M4630.659,317.772h2.264v15.584h-2.264Z" fill="#4e3b30" />
			<path id="Path_47755" data-name="Path 47755"
				d="M4647.7,331.726c-.7-.936-1.526-1.936-2.483-3.036v6.172h-1.582v-5.827a15,15,0,0,1-2.834,3.748l-1.367-1.057a16.025,16.025,0,0,0,3.713-4.828h-3.264V325.33h3.752v-1.549h1.582v1.549h3.4V326.9h-3.067c1.171,1.161,2.265,2.363,3.361,3.667Zm-6.664-7.945a22.98,22.98,0,0,0-1.348-3.83l1.425-.569a18.849,18.849,0,0,1,1.368,3.87Zm-1-6.843a45.9,45.9,0,0,0,8.656-.9l.292,1.629a41.852,41.852,0,0,1-8.694.895Zm3.693,5.684a26.928,26.928,0,0,0-.371-3.423l1.484-.144c.215,1.712.352,2.913.371,3.567Zm2.129.67a26.3,26.3,0,0,0,1.916-4.6l1.406.57a22.928,22.928,0,0,1-1.953,4.707Zm2.11,10a17.453,17.453,0,0,0,8.5-6.619l1.29,1.08a21.044,21.044,0,0,1-8.93,7.151Zm1.525-13.322a15.015,15.015,0,0,0,5.843-3.872l1.192,1.225a17.013,17.013,0,0,1-6.137,4.156Zm0,5.807a16.191,16.191,0,0,0,6.31-4.2l1.174,1.241a17.754,17.754,0,0,1-6.586,4.484Z"
				fill="#4e3b30" />
			<path id="Path_47756" data-name="Path 47756"
				d="M4664.186,327.53h-2.559a.2.2,0,0,0-.2.224v1.2a18.56,18.56,0,0,1-.783,5.579l-1.639-.508a20.9,20.9,0,0,0,.761-5.622v-2.118c0-.327.157-.489.449-.489h3.968V323.23h-3.615c-.547,0-.8-.264-.8-.854V316.53h1.661v4.522a.391.391,0,0,0,.432.449h2.324v-5.358h1.66v18.638h-1.66Zm11.607-6.519a17.862,17.862,0,0,1-2.99,9.268l4.436,3.4-1.406,1.264-4.182-3.321a17.6,17.6,0,0,1-3.947,3.2l-1.33-1.364a36.943,36.943,0,0,0,3.968-2.874l-3.42-2.73a.283.283,0,0,1-.156-.223.547.547,0,0,1,.078-.2,27.676,27.676,0,0,0,2.559-6.416h-2.813v-1.732h3.223l.547-3.18,1.682.552-.547,2.628h5.646v1.732Zm-4.318,8.269a15.417,15.417,0,0,0,2.658-8.269h-3.049a28.465,28.465,0,0,1-2.267,6.029.159.159,0,0,0-.039.124c0,.079.058.143.176.18Z"
				fill="#4e3b30" />
			<path id="Path_47757" data-name="Path 47757"
				d="M4693.868,322.639l-.119,1.549-.137.226-.294.1h-12.153c-.215-.061-.233-.245-.233-.489l.233-1.387H4678.8v-1.321h2.6l.314-1.65.1-.163.213-.063h11.685c.237.081.43.142.392.348l-.137,1.528h2.5v1.321Zm-7-5.4v-1.1h1.64v1.1h6.956l1.29.693a10.621,10.621,0,0,1-.547,2.891l-1.464-.387a5.946,5.946,0,0,0,.31-1.467c.022-.122-.017-.222-.174-.222h-14.088c-.1,0-.137.041-.137.123v1.771h-1.507v-3.1a.266.266,0,0,1,.295-.306Zm3.612,15.032h-5.254l.312,1.122a39.75,39.75,0,0,1-5.608,1.751l-.332-1.588,4.3-1.285h-2.951c-.138,0-.2-.081-.2-.223v-6.641c0-.143.058-.2.2-.2h13.464c.137,0,.213.06.213.2v6.641a.2.2,0,0,1-.213.223h-2.931a33.653,33.653,0,0,0,4.024,1.367l-.527,1.546c-2.5-.834-4.162-1.425-4.942-1.791Zm-8.226-5.072h10.866v-.61l-.079-.063h-10.727c-.06,0-.079.021-.06.063Zm0,1.894h10.866v-.732h-10.866Zm10.866,1.182h-10.866v.57l.06.082h10.727l.079-.082Zm-6.565-7.027.117-.613h-3.967l-.039.287a.285.285,0,0,0-.06.143c0,.08.06.142.178.183Zm.371-1.934.117-.632h-3.791c-.175,0-.254.1-.254.285l-.078.347Zm1.29,1.321-.118.613h3.986c.215-.041.235-.124.254-.613Zm.37-1.953-.1.632h3.966l.04-.347c0-.184-.1-.265-.273-.285Z"
				fill="#4e3b30" />
			<path id="Path_47758" data-name="Path 47758"
				d="M4698.047,333.925a45.417,45.417,0,0,0,.332-4.929c0-.591-.02-1.122-.059-1.609h1.31c.038.53.057,1.1.057,1.69a35.978,35.978,0,0,1-.37,4.929Zm6.508-4.746-.079-2.4c.019-.123-.04-.2-.2-.2h-5.256c-.176,0-.254-.081-.254-.264v-9.289c-.02-.244.1-.367.312-.367h6.467v1.407h-2.382v1.465h1.994v1.407h-1.994v1.446h1.994V323.8h-1.994v1.364h2.5c.216,0,.334.1.334.307.039,1.221.058,2.32.058,3.259,0,5.132-.353,6.193-3.166,6.193-.293,0-.6-.02-.937-.042l-.178-1.649a10.171,10.171,0,0,0,1.584.182.761.761,0,0,0,.469-.1,2.513,2.513,0,0,0,.645-1.467l.079-1.813-.744.164a17.349,17.349,0,0,0-.8-2.73l.939-.265Zm-4.262,4.155a34.653,34.653,0,0,0-.333-5.764l1.291-.061a46.869,46.869,0,0,1,.292,5.867Zm1.525-13.811v-1.465h-1.388c-.137,0-.176.081-.156.182v1.283Zm0,2.853V320.93h-1.544v1.446Zm-1.544,2.79h1.544V323.8h-1.544Zm2.071,6.8a33.891,33.891,0,0,0-.861-4.421l1.1-.205a38.393,38.393,0,0,1,.858,4.483Zm6.195.447h-.02a11.863,11.863,0,0,1-1.661,2.568l-1.31-.939a10.377,10.377,0,0,0,2.483-5.05l1.484.307-.428,1.689,1.817,1.631-1.074,1.221Zm-.431-11.956-1.562.815-.977-1.425a12.514,12.514,0,0,0,5.2-3.628l1.171.816-.195.184a20.515,20.515,0,0,0,4.495,2.361l-.781,1.529-1.682-.713v1.284h-5.667Zm2.542,7.883c0,.143-.078.225-.2.225h-3.79c-.137,0-.2-.082-.2-.225v-5.357c0-.143.059-.2.2-.2h3.79a.18.18,0,0,1,.2.2Zm-1.428-4.156H4707.9l-.059.063v2.831l.059.082h1.328c.061,0,.078-.021.078-.082v-2.831Zm4.164-3.992a15.391,15.391,0,0,1-2.638-1.913,15.023,15.023,0,0,1-2.229,1.913Zm1.913,14.83c-.6-.734-1.309-1.528-2.13-2.385a13.588,13.588,0,0,1-1.582,2.4l-1.308-.917a10.353,10.353,0,0,0,2.48-5.07l1.486.325a7.793,7.793,0,0,1-.488,1.874c.9.815,1.778,1.689,2.637,2.607Zm.314-6.682a.2.2,0,0,1-.215.225h-3.772c-.136,0-.195-.082-.195-.225v-5.357c0-.143.059-.2.195-.2h3.772c.137,0,.215.062.215.2Zm-1.427-4.156h-1.329l-.059.063v2.831l.059.082h1.329c.059,0,.079-.021.079-.082v-2.831Z"
				fill="#4e3b30" />
			<path id="Path_47759" data-name="Path 47759"
				d="M4725.87,332.723v-2.158h-6.838v-1.731h6.838v-2.08l-6.858.309-.371-1.713,2.443-.082a36.513,36.513,0,0,0,2.559-2.955h-3.088v-1.647h12.233v1.647h-7.034c-.6.815-1.349,1.773-2.265,2.853l7.931-.285-1.074-1.1,1.252-1.2a27.781,27.781,0,0,1,3.632,4.4l-1.291,1.139-1.23-1.65-5.176.225v2.14h6.935v1.731h-6.935v2.158h8.01v1.733h-17.587v-1.733Zm0-14.993v-1.507h1.663v1.507h6.9l1.446.755a18.258,18.258,0,0,1-.918,4.094l-1.506-.509a10.987,10.987,0,0,0,.547-2.486c0-.142-.077-.2-.215-.2H4719.93a.146.146,0,0,0-.156.162v2.688h-1.582v-4.2a.271.271,0,0,1,.312-.3Z"
				fill="#4e3b30" />
		</g>
		<g id="Group_22671" data-name="Group 22671">
			<path id="Path_47760" data-name="Path 47760"
				d="M4580.933,289.495h3.259l4.25,6.245v-6.245h3.288v11.287h-3.288l-4.227-6.2v6.2h-3.282Z"
				fill="#1a1311" />
			<path id="Path_47761" data-name="Path 47761"
				d="M4596.7,295.255l-3-.317a3.361,3.361,0,0,1,.49-1.237,2.735,2.735,0,0,1,.919-.779,3.842,3.842,0,0,1,1.188-.37,9.258,9.258,0,0,1,1.631-.132,12.936,12.936,0,0,1,2.263.159,2.883,2.883,0,0,1,1.428.659,2.3,2.3,0,0,1,.63.978,3.611,3.611,0,0,1,.23,1.214v3.613a4.332,4.332,0,0,0,.073.9,3.984,3.984,0,0,0,.321.836h-2.943a2.957,2.957,0,0,1-.231-.481,3.884,3.884,0,0,1-.108-.519,4.177,4.177,0,0,1-1.223.847,5.148,5.148,0,0,1-1.936.337,3.249,3.249,0,0,1-2.218-.674,2.155,2.155,0,0,1-.759-1.67,2.2,2.2,0,0,1,.546-1.536,3.705,3.705,0,0,1,2.017-.892c1.176-.237,1.94-.4,2.287-.5a10.2,10.2,0,0,0,1.109-.376,1.084,1.084,0,0,0-.24-.807,1.2,1.2,0,0,0-.837-.232,2.179,2.179,0,0,0-1.155.247A1.369,1.369,0,0,0,4596.7,295.255Zm2.718,1.647q-.647.228-1.347.409a3.089,3.089,0,0,0-1.209.5.8.8,0,0,0,0,1.182,1.087,1.087,0,0,0,.757.235,1.925,1.925,0,0,0,.975-.256,1.516,1.516,0,0,0,.638-.617,2.068,2.068,0,0,0,.189-.952Z"
				fill="#1a1311" />
			<path id="Path_47762" data-name="Path 47762"
				d="M4607.87,289.495v3.11h1.724V294.9h-1.724v2.9a1.632,1.632,0,0,0,.1.694.586.586,0,0,0,.541.261,3.354,3.354,0,0,0,.97-.205l.23,2.168a10.258,10.258,0,0,1-2.169.252,3.736,3.736,0,0,1-1.727-.3,1.844,1.844,0,0,1-.818-.909,5.391,5.391,0,0,1-.266-1.984V294.9h-1.156v-2.295h1.156v-1.5Z"
				fill="#1a1311" />
			<path id="Path_47763" data-name="Path 47763"
				d="M4611.2,289.495h3.135v2.133H4611.2Zm0,3.11h3.135v8.177H4611.2Z" fill="#1a1311" />
			<path id="Path_47764" data-name="Path 47764"
				d="M4615.953,296.717a4.09,4.09,0,0,1,1.262-3.083,5.477,5.477,0,0,1,7.12.208,4.46,4.46,0,0,1-.239,5.92,4.8,4.8,0,0,1-3.461,1.2,4.867,4.867,0,0,1-3.189-1A4.021,4.021,0,0,1,4615.953,296.717Zm3.141-.009a2.458,2.458,0,0,0,.442,1.616,1.446,1.446,0,0,0,2.227.007,2.554,2.554,0,0,0,.435-1.653,2.391,2.391,0,0,0-.442-1.581,1.361,1.361,0,0,0-1.084-.523,1.42,1.42,0,0,0-1.131.53A2.443,2.443,0,0,0,4619.094,296.708Z"
				fill="#1a1311" />
			<path id="Path_47765" data-name="Path 47765"
				d="M4626.856,292.605h2.916v1.331a4.383,4.383,0,0,1,1.326-1.164,3.461,3.461,0,0,1,1.634-.352,2.667,2.667,0,0,1,2.035.774,3.373,3.373,0,0,1,.735,2.392v5.2h-3.15v-4.5a1.635,1.635,0,0,0-.284-1.09,1.014,1.014,0,0,0-.8-.319,1.153,1.153,0,0,0-.927.426,2.548,2.548,0,0,0-.352,1.552v3.926h-3.133Z"
				fill="#1a1311" />
			<path id="Path_47766" data-name="Path 47766"
				d="M4640.229,295.255l-3-.317a3.344,3.344,0,0,1,.49-1.237,2.707,2.707,0,0,1,.919-.779,3.821,3.821,0,0,1,1.185-.37,9.318,9.318,0,0,1,1.633-.132,12.982,12.982,0,0,1,2.264.159,2.868,2.868,0,0,1,1.424.659,2.3,2.3,0,0,1,.633.978,3.565,3.565,0,0,1,.231,1.214v3.613a4.5,4.5,0,0,0,.071.9,3.98,3.98,0,0,0,.319.836h-2.938a2.867,2.867,0,0,1-.234-.481,3.81,3.81,0,0,1-.106-.519,4.176,4.176,0,0,1-1.226.847,5.122,5.122,0,0,1-1.931.337,3.243,3.243,0,0,1-2.22-.674,2.154,2.154,0,0,1-.76-1.67,2.181,2.181,0,0,1,.547-1.536,3.7,3.7,0,0,1,2.016-.892q1.763-.355,2.288-.5a10.409,10.409,0,0,0,1.108-.376,1.1,1.1,0,0,0-.239-.807,1.2,1.2,0,0,0-.839-.232,2.181,2.181,0,0,0-1.155.247A1.344,1.344,0,0,0,4640.229,295.255Zm2.718,1.647q-.647.228-1.349.409a3.08,3.08,0,0,0-1.207.5.775.775,0,0,0-.262.577.784.784,0,0,0,.259.605,1.087,1.087,0,0,0,.758.235,1.925,1.925,0,0,0,.974-.256,1.523,1.523,0,0,0,.638-.617,2.068,2.068,0,0,0,.189-.952Z"
				fill="#1a1311" />
			<path id="Path_47767" data-name="Path 47767" d="M4648,289.495h3.141v11.287H4648Z" fill="#1a1311" />
			<path id="Path_47768" data-name="Path 47768" d="M4657.814,289.495h10.6v2.786h-3.556v8.5h-3.487v-8.5h-3.558Z"
				fill="#1a1311" />
			<path id="Path_47769" data-name="Path 47769"
				d="M4668.162,298.511l3.111-.292a1.525,1.525,0,0,0,.539.791,1.6,1.6,0,0,0,.923.241,1.564,1.564,0,0,0,.979-.271.6.6,0,0,0,.27-.5.563.563,0,0,0-.355-.52,6.4,6.4,0,0,0-1.347-.326,13.758,13.758,0,0,1-2.268-.526,2.377,2.377,0,0,1-1.068-.818,2.139,2.139,0,0,1-.438-1.316,2.165,2.165,0,0,1,.47-1.392,2.778,2.778,0,0,1,1.295-.873,6.875,6.875,0,0,1,2.209-.289,7.782,7.782,0,0,1,2.16.221,2.854,2.854,0,0,1,1.162.7,3.61,3.61,0,0,1,.775,1.269l-2.973.293a1.017,1.017,0,0,0-.384-.578,1.557,1.557,0,0,0-.9-.247,1.273,1.273,0,0,0-.773.188.566.566,0,0,0-.242.459.486.486,0,0,0,.308.452,4.8,4.8,0,0,0,1.34.277,9.243,9.243,0,0,1,2.325.494,2.546,2.546,0,0,1,1.166.9,2.225,2.225,0,0,1,.4,1.285,2.57,2.57,0,0,1-.426,1.378,2.936,2.936,0,0,1-1.347,1.065,6.543,6.543,0,0,1-2.509.395,5.942,5.942,0,0,1-3.192-.641A2.867,2.867,0,0,1,4668.162,298.511Z"
				fill="#1a1311" />
			<path id="Path_47770" data-name="Path 47770"
				d="M4678.464,289.495h3.134v2.133h-3.134Zm0,3.11h3.134v8.177h-3.134Z" fill="#1a1311" />
			<path id="Path_47771" data-name="Path 47771"
				d="M4683.6,292.605h2.92v1.331a4.372,4.372,0,0,1,1.324-1.164,3.466,3.466,0,0,1,1.631-.352,2.67,2.67,0,0,1,2.038.774,3.382,3.382,0,0,1,.736,2.392v5.2H4689.1v-4.5a1.64,1.64,0,0,0-.285-1.09,1.01,1.01,0,0,0-.8-.319,1.143,1.143,0,0,0-.924.426,2.526,2.526,0,0,0-.354,1.552v3.926H4683.6Z"
				fill="#1a1311" />
			<path id="Path_47772" data-name="Path 47772"
				d="M4699.808,292.605h2.933v7.72l.007.364a3.375,3.375,0,0,1-.326,1.465,3.044,3.044,0,0,1-.87,1.129,3.35,3.35,0,0,1-1.379.626,8.725,8.725,0,0,1-1.913.19,5.643,5.643,0,0,1-3.384-.737,2.413,2.413,0,0,1-.922-1.98c0-.1.006-.241.018-.416l3.041.346a1,1,0,0,0,.352.586,1.506,1.506,0,0,0,.872.24,1.318,1.318,0,0,0,1.013-.365,1.847,1.847,0,0,0,.334-1.263v-1.237a3.336,3.336,0,0,1-.922.793,3.287,3.287,0,0,1-1.566.38,3.092,3.092,0,0,1-2.647-1.429,4.566,4.566,0,0,1-.717-2.687,4.133,4.133,0,0,1,.925-2.9,3.126,3.126,0,0,1,2.417-1,3.417,3.417,0,0,1,1.574.323,3.473,3.473,0,0,1,1.16,1.07Zm-2.95,3.967a1.918,1.918,0,0,0,.38,1.31,1.242,1.242,0,0,0,.99.429,1.271,1.271,0,0,0,.981-.441,1.949,1.949,0,0,0,.4-1.339,2.024,2.024,0,0,0-.417-1.367,1.3,1.3,0,0,0-1.012-.47,1.181,1.181,0,0,0-.962.431A2.3,2.3,0,0,0,4696.858,296.572Z"
				fill="#1a1311" />
			<path id="Path_47773" data-name="Path 47773"
				d="M4704.636,289.495h3.131v4.155a4.358,4.358,0,0,1,1.272-.944,3.625,3.625,0,0,1,1.493-.286,2.631,2.631,0,0,1,2.012.778,3.359,3.359,0,0,1,.736,2.388v5.2h-3.148v-4.5a1.629,1.629,0,0,0-.285-1.09,1.014,1.014,0,0,0-.8-.319,1.137,1.137,0,0,0-.922.426,2.523,2.523,0,0,0-.357,1.552v3.926h-3.131Z"
				fill="#1a1311" />
			<path id="Path_47774" data-name="Path 47774"
				d="M4723.768,300.782h-2.928v-1.326a4.243,4.243,0,0,1-1.318,1.163,3.509,3.509,0,0,1-1.637.347,2.682,2.682,0,0,1-2.03-.772,3.376,3.376,0,0,1-.732-2.384v-5.2h3.148v4.5a1.655,1.655,0,0,0,.283,1.091,1.018,1.018,0,0,0,.8.325,1.133,1.133,0,0,0,.919-.433,2.474,2.474,0,0,0,.358-1.547v-3.934h3.136Z"
				fill="#1a1311" />
			<path id="Path_47775" data-name="Path 47775"
				d="M4728.526,295.255l-2.994-.317a3.346,3.346,0,0,1,.486-1.237,2.728,2.728,0,0,1,.922-.779,3.821,3.821,0,0,1,1.185-.37,9.253,9.253,0,0,1,1.63-.132,13.007,13.007,0,0,1,2.267.159,2.878,2.878,0,0,1,1.426.659,2.3,2.3,0,0,1,.631.978,3.606,3.606,0,0,1,.228,1.214v3.613a4.459,4.459,0,0,0,.074.9,4.379,4.379,0,0,0,.319.836h-2.938a3.283,3.283,0,0,1-.234-.481,4.017,4.017,0,0,1-.107-.519,4.169,4.169,0,0,1-1.224.847,5.133,5.133,0,0,1-1.932.337,3.258,3.258,0,0,1-2.222-.674,2.157,2.157,0,0,1-.757-1.67,2.185,2.185,0,0,1,.548-1.536,3.682,3.682,0,0,1,2.014-.892q1.762-.355,2.288-.5a10.192,10.192,0,0,0,1.108-.376,1.08,1.08,0,0,0-.24-.807,1.2,1.2,0,0,0-.838-.232,2.194,2.194,0,0,0-1.156.247A1.365,1.365,0,0,0,4728.526,295.255Zm2.718,1.647c-.431.152-.882.289-1.347.409a3.082,3.082,0,0,0-1.209.5.8.8,0,0,0,0,1.182,1.085,1.085,0,0,0,.757.235,1.918,1.918,0,0,0,.973-.256,1.519,1.519,0,0,0,.64-.617,2.081,2.081,0,0,0,.189-.952Z"
				fill="#1a1311" />
			<path id="Path_47776" data-name="Path 47776"
				d="M4749,289.495h3.48v6.727a5.673,5.673,0,0,1-.311,1.888,4.1,4.1,0,0,1-.979,1.552,3.927,3.927,0,0,1-1.4.937,7.022,7.022,0,0,1-2.438.376,15.151,15.151,0,0,1-1.8-.117,4.707,4.707,0,0,1-1.628-.457,4.192,4.192,0,0,1-1.2-.973,3.6,3.6,0,0,1-.742-1.3,6.752,6.752,0,0,1-.32-1.906v-6.727h3.477v6.885a1.967,1.967,0,0,0,.513,1.442,2.2,2.2,0,0,0,2.831.009,1.956,1.956,0,0,0,.514-1.451Z"
				fill="#1a1311" />
			<path id="Path_47777" data-name="Path 47777"
				d="M4754.58,292.605h2.919v1.331a4.369,4.369,0,0,1,1.323-1.164,3.485,3.485,0,0,1,1.633-.352,2.671,2.671,0,0,1,2.038.774,3.373,3.373,0,0,1,.733,2.392v5.2h-3.149v-4.5a1.629,1.629,0,0,0-.285-1.09,1.008,1.008,0,0,0-.8-.319,1.146,1.146,0,0,0-.924.426,2.547,2.547,0,0,0-.353,1.552v3.926h-3.135Z"
				fill="#1a1311" />
			<path id="Path_47778" data-name="Path 47778"
				d="M4765.214,289.495h3.134v2.133h-3.134Zm0,3.11h3.134v8.177h-3.134Z" fill="#1a1311" />
			<path id="Path_47779" data-name="Path 47779"
				d="M4769.426,292.605h3.26l1.586,5.182,1.646-5.182h3.164l-3.477,8.177h-2.78Z" fill="#1a1311" />
			<path id="Path_47780" data-name="Path 47780"
				d="M4788.651,297.47h-6.28a2.01,2.01,0,0,0,.4,1.124,1.481,1.481,0,0,0,1.185.532,1.825,1.825,0,0,0,.877-.228,2.012,2.012,0,0,0,.547-.519l3.09.284a4.419,4.419,0,0,1-1.711,1.768,6.217,6.217,0,0,1-2.872.535,5.872,5.872,0,0,1-2.557-.46,3.748,3.748,0,0,1-1.542-1.451,4.395,4.395,0,0,1-.614-2.347,4.117,4.117,0,0,1,1.231-3.1,4.664,4.664,0,0,1,3.392-1.185,6.045,6.045,0,0,1,2.769.531,3.6,3.6,0,0,1,1.549,1.539,5.629,5.629,0,0,1,.531,2.628Zm-3.189-1.5a2.113,2.113,0,0,0-.487-1.3,1.539,1.539,0,0,0-2.238.2,2.17,2.17,0,0,0-.361,1.1Z"
				fill="#1a1311" />
			<path id="Path_47781" data-name="Path 47781"
				d="M4790.123,292.605h2.931v1.339a3.129,3.129,0,0,1,.877-1.2,1.841,1.841,0,0,1,1.111-.327,3.332,3.332,0,0,1,1.518.431l-.973,2.233a2.469,2.469,0,0,0-.875-.232,1.091,1.091,0,0,0-.958.511,5.18,5.18,0,0,0-.483,2.677v2.742h-3.148Z"
				fill="#1a1311" />
			<path id="Path_47782" data-name="Path 47782"
				d="M4796.929,298.511l3.109-.292a1.537,1.537,0,0,0,.539.791,1.6,1.6,0,0,0,.924.241,1.552,1.552,0,0,0,.975-.271.6.6,0,0,0,.273-.5.566.566,0,0,0-.355-.52,6.348,6.348,0,0,0-1.347-.326,13.8,13.8,0,0,1-2.266-.526,2.4,2.4,0,0,1-1.072-.818,2.246,2.246,0,0,1,.036-2.708,2.767,2.767,0,0,1,1.294-.873,6.848,6.848,0,0,1,2.208-.289,7.808,7.808,0,0,1,2.162.221,2.816,2.816,0,0,1,1.159.7,3.568,3.568,0,0,1,.775,1.269l-2.971.293a1.02,1.02,0,0,0-.384-.578,1.562,1.562,0,0,0-.893-.247,1.289,1.289,0,0,0-.777.188.567.567,0,0,0-.242.459.49.49,0,0,0,.309.452,4.8,4.8,0,0,0,1.339.277,9.193,9.193,0,0,1,2.325.494,2.529,2.529,0,0,1,1.166.9,2.2,2.2,0,0,1,.405,1.285,2.536,2.536,0,0,1-.428,1.378,2.9,2.9,0,0,1-1.346,1.065,6.525,6.525,0,0,1-2.508.395,5.928,5.928,0,0,1-3.189-.641A2.852,2.852,0,0,1,4796.929,298.511Z"
				fill="#1a1311" />
			<path id="Path_47783" data-name="Path 47783"
				d="M4807.231,289.495h3.132v2.133h-3.132Zm0,3.11h3.132v8.177h-3.132Z" fill="#1a1311" />
			<path id="Path_47784" data-name="Path 47784"
				d="M4816.147,289.495v3.11h1.724V294.9h-1.724v2.9a1.582,1.582,0,0,0,.1.694.577.577,0,0,0,.538.261,3.364,3.364,0,0,0,.97-.205l.232,2.168a10.306,10.306,0,0,1-2.172.252,3.735,3.735,0,0,1-1.726-.3,1.853,1.853,0,0,1-.82-.909,5.37,5.37,0,0,1-.266-1.984V294.9h-1.154v-2.295H4813v-1.5Z"
				fill="#1a1311" />
			<path id="Path_47785" data-name="Path 47785"
				d="M4818.463,292.605h3.305l1.689,5.443,1.567-5.443h3.087l-3.243,8.737a5.338,5.338,0,0,1-1.132,2.02,3.61,3.61,0,0,1-2.487.737,17.535,17.535,0,0,1-2.093-.185l-.245-2.184a4.973,4.973,0,0,0,1.507.216,1.47,1.47,0,0,0,.9-.254,1.946,1.946,0,0,0,.581-.911Z"
				fill="#1a1311" />
		</g>
		<path id="Path_47786" data-name="Path 47786"
			d="M4820.858,263.763h9.061v6.977a10.234,10.234,0,0,1-1.6,6.084,13.141,13.141,0,0,1-5.476,3.933l-1.98-3.7a9.481,9.481,0,0,0,3.324-2.241,4.568,4.568,0,0,0,1.008-2.635h-4.332Z"
			fill="#32190e" />
		<path id="Path_47787" data-name="Path 47787" d="M4500.254,239.738h8.331v22.489h13v7.347h-21.335Z"
			fill="#32190e" />
		<path id="Path_47788" data-name="Path 47788"
			d="M4527.713,242.156h7.487v5.637h-7.487Zm0,8.222h7.487v21.613h-7.487Z" fill="#32190e" />
		<path id="Path_47789" data-name="Path 47789"
			d="M4542.539,261.7h6.97v3.52a10.835,10.835,0,0,1,3.162-3.083,7.658,7.658,0,0,1,3.9-.927,6.077,6.077,0,0,1,4.866,2.045q1.755,2.046,1.755,6.321v13.738h-7.522V271.426a4.685,4.685,0,0,0-.679-2.881,2.318,2.318,0,0,0-1.914-.844,2.622,2.622,0,0,0-2.207,1.14,7.182,7.182,0,0,0-.846,4.089v10.382h-7.485Z"
			fill="#32190e" />
		<path id="Path_47790" data-name="Path 47790"
			d="M4567.8,250.378h6.971V253.9a10.758,10.758,0,0,1,3.164-3.084,7.668,7.668,0,0,1,3.9-.927,6.069,6.069,0,0,1,4.864,2.047q1.758,2.045,1.757,6.318v13.738h-7.522V260.106a4.651,4.651,0,0,0-.682-2.88,2.314,2.314,0,0,0-1.912-.844,2.626,2.626,0,0,0-2.206,1.139,7.19,7.19,0,0,0-.846,4.092v10.378H4567.8Z"
			fill="#32190e" />
		<path id="Path_47791" data-name="Path 47791"
			d="M4615.958,263.24h-15.009a5.711,5.711,0,0,0,.975,2.971,3.409,3.409,0,0,0,2.831,1.4,3.954,3.954,0,0,0,2.1-.609,5.16,5.16,0,0,0,1.306-1.365l7.376.753a11.233,11.233,0,0,1-4.083,4.671,13.607,13.607,0,0,1-6.861,1.415,12.9,12.9,0,0,1-6.106-1.21,9.425,9.425,0,0,1-3.687-3.846,12.577,12.577,0,0,1-1.463-6.2,11.517,11.517,0,0,1,2.934-8.2,10.559,10.559,0,0,1,8.1-3.136,13.262,13.262,0,0,1,6.623,1.4,9.082,9.082,0,0,1,3.695,4.073,16.21,16.21,0,0,1,1.271,6.94Zm-7.616-3.968a5.861,5.861,0,0,0-1.169-3.44,3.221,3.221,0,0,0-2.492-1.037,3.289,3.289,0,0,0-2.849,1.567,6.136,6.136,0,0,0-.865,2.91Zm-3.973-17.627h6.438l-5.941,6.089h-3.586Z"
			fill="#32190e" />
		<path id="Path_47792" data-name="Path 47792"
			d="M4646.026,242.156h10.957l4.226,18.155,4.195-18.155h10.95v29.835h-6.823V249.238l-5.258,22.753H4658.1l-5.248-22.753v22.753h-6.823Z"
			fill="#32190e" />
		<path id="Path_47793" data-name="Path 47793"
			d="M4689.343,257.379l-7.153-.835a9.446,9.446,0,0,1,1.168-3.266,6.666,6.666,0,0,1,2.2-2.065,8.59,8.59,0,0,1,2.833-.977,20.654,20.654,0,0,1,3.9-.348,28.063,28.063,0,0,1,5.407.419,6.683,6.683,0,0,1,3.4,1.738,6.22,6.22,0,0,1,1.508,2.6,10.268,10.268,0,0,1,.553,3.206v9.546a12.5,12.5,0,0,0,.174,2.39,11.469,11.469,0,0,0,.762,2.208h-7.026a8.528,8.528,0,0,1-.551-1.272,10.5,10.5,0,0,1-.257-1.373,9.7,9.7,0,0,1-2.924,2.239,11.169,11.169,0,0,1-4.616.9,7.242,7.242,0,0,1-5.305-1.789,5.969,5.969,0,0,1-1.814-4.416,6.175,6.175,0,0,1,1.307-4.053q1.3-1.587,4.818-2.36,4.212-.936,5.462-1.313a23.826,23.826,0,0,0,2.649-.986,3.122,3.122,0,0,0-.57-2.137,2.671,2.671,0,0,0-2-.612,4.776,4.776,0,0,0-2.759.652A3.6,3.6,0,0,0,4689.343,257.379Zm6.493,4.355a32.545,32.545,0,0,1-3.218,1.079,7.1,7.1,0,0,0-2.888,1.323,2.273,2.273,0,0,0-.01,3.123,2.441,2.441,0,0,0,1.813.621,4.314,4.314,0,0,0,2.326-.671,3.873,3.873,0,0,0,1.526-1.638,5.969,5.969,0,0,0,.451-2.513Z"
			fill="#32190e" />
		<path id="Path_47794" data-name="Path 47794"
			d="M4710.2,242.156h7.651v15.4l5.592-7.179h9.213l-7.008,7.571,7.412,14.042h-8.435l-3.955-8.664-2.819,3.047v5.617H4710.2Z"
			fill="#32190e" />
		<path id="Path_47795" data-name="Path 47795"
			d="M4760.775,263.24h-15.009a5.706,5.706,0,0,0,.976,2.971,3.409,3.409,0,0,0,2.832,1.4,3.953,3.953,0,0,0,2.1-.609,5.154,5.154,0,0,0,1.307-1.365l7.375.753a11.228,11.228,0,0,1-4.082,4.671,13.611,13.611,0,0,1-6.862,1.415,12.893,12.893,0,0,1-6.1-1.21,9.421,9.421,0,0,1-3.688-3.846,12.577,12.577,0,0,1-1.461-6.2,11.516,11.516,0,0,1,2.932-8.2,10.561,10.561,0,0,1,8.1-3.136,13.252,13.252,0,0,1,6.621,1.4,9.062,9.062,0,0,1,3.7,4.073,16.211,16.211,0,0,1,1.27,6.94Zm-7.615-3.968a5.892,5.892,0,0,0-1.166-3.44,3.225,3.225,0,0,0-2.493-1.037,3.29,3.29,0,0,0-2.851,1.567,6.137,6.137,0,0,0-.864,2.91Z"
			fill="#32190e" />
		<path id="Path_47796" data-name="Path 47796"
			d="M4786.143,271.991h-6.99v-3.5a10.664,10.664,0,0,1-3.152,3.074,7.741,7.741,0,0,1-3.91.916,6.053,6.053,0,0,1-4.846-2.045q-1.756-2.046-1.755-6.3V250.378h7.521v11.885a4.714,4.714,0,0,0,.681,2.891,2.3,2.3,0,0,0,1.911.855,2.63,2.63,0,0,0,2.2-1.141,7.122,7.122,0,0,0,.856-4.09v-10.4h7.485Z"
			fill="#32190e" />
		<path id="Path_47797" data-name="Path 47797"
			d="M4792.071,280.214V250.378h7.007v3.194a9.782,9.782,0,0,1,2.666-2.728,7.063,7.063,0,0,1,3.625-.956,6.814,6.814,0,0,1,6.059,3.319,14.818,14.818,0,0,1,2.143,8.2q0,5.393-2.337,8.232a7.321,7.321,0,0,1-5.9,2.839,7.256,7.256,0,0,1-5.7-2.584v10.318Zm7.5-18.968a6.126,6.126,0,0,0,.975,3.8,3.008,3.008,0,0,0,2.465,1.242,2.641,2.641,0,0,0,2.19-1.19,6.993,6.993,0,0,0,.88-4.04,6.473,6.473,0,0,0-.918-3.856,2.73,2.73,0,0,0-2.244-1.232,2.906,2.906,0,0,0-2.392,1.241A6.675,6.675,0,0,0,4799.574,261.246Z"
			fill="#32190e" />
		<g id="Group_22675" data-name="Group 22675">
			<g id="Group_22674" data-name="Group 22674">
				<g id="Group_22673" data-name="Group 22673" clip-path="url(#clip-path)">
					<path id="Path_47798" data-name="Path 47798"
						d="M4473.213,277.912l-3.8,1.99a14.58,14.58,0,0,0-.858,1.851v-1.4l.858-.45c.055-.1.115-.21.174-.312,5.027-8.8-3.644-6.148-1.733-12.97s1.871-10.481,1.592-19.38c-.193-6.19-3.637-3.441-7.141-3.487-.157-.113-.315-.227-.47-.342a10.572,10.572,0,0,0-1.826-1.025c-.343-.166-.613-.321-.711-.7-.231-.084-.508-.11-.585-.426.3-.223.54.068.8.081a1.157,1.157,0,0,0-1.184-.712,7.914,7.914,0,0,1-.83-.073c-2.432-2.581-9.156-2.9-16.109-2.445,1.4-1.219,2.325-2.639,1.492-4.8q-2.4.007-4.795.011c.205.555-.3.856-.467,1.28a8.18,8.18,0,0,1-1.769,2.425,13.692,13.692,0,0,1-1.845,1.8c-5.98.731-10.948,1.648-11.861,1.624-2.352-.052-11.749,7.374-11.749,7.374l11.38,16.739c-.089-.006-.189-.016-.31-.036-.363-.071-.57-.013-.655.357a6.93,6.93,0,0,0,.292,4.439c.035.083.037.2.1.246a2.973,2.973,0,0,1,1.44,2.91.284.284,0,0,0,.128.223c.941.441.866,1.044.32,1.757-.248.323.055.448.262.622a1.49,1.49,0,0,1,.153,2.379c-.221.227-.17.459-.165.733.032,1.062.5,2.069.172,3.206a2.3,2.3,0,0,0,.847,2.228c.668.7.852.593,1.53.164a6.431,6.431,0,0,1,2.5-1.263A7.88,7.88,0,0,1,4431,282.3a3,3,0,0,0,.32.045,7.274,7.274,0,1,1,6.116,12.034c-.352.288-.721.569-1.1.838a3.784,3.784,0,0,1-.9.345.606.606,0,0,1-.172.034.4.4,0,0,1-.386.313c-3.9.225-1.916,9.884-2.508,11.939-.5,1.725-.592,3.679-1.759,5.124-.9,1.107-12.923,8.1-12.65,8.526l4.187,7.343a77.5,77.5,0,0,0,12.256-1h9.2a5.977,5.977,0,0,1,.937-2.771c.97-3.234,2.335-5.646,3.432-8.625a17.973,17.973,0,0,0,.828-2.751.754.754,0,0,0-.2.056c1.264-3.252,2.234-6.682,4.117-9.648,1.313-2.068,2.651-4.122,3.931-6.21a2.835,2.835,0,0,0,.437-.693,15.232,15.232,0,0,1,5.3-4.686c.564-.325,5.683-2.318,5.683-2.672v.07c.157-.043.319-.084.479-.124,0-.07,0-.134,0-.2a28.513,28.513,0,0,0,3.545-2.265C4479.216,281.944,4473.213,277.912,4473.213,277.912Z"
						fill="#1a1311" fill-rule="evenodd" />
					<path id="Path_47799" data-name="Path 47799"
						d="M4392.906,314.466c-.122.783-.765,1.332-.951,2.088h-.834q.294-.676.59-1.354c.248.131.325,0,.453-.21C4392.319,314.732,4392.44,314.327,4392.906,314.466Z"
						fill="#514e4d" fill-rule="evenodd" />
					<path id="Path_47800" data-name="Path 47800"
						d="M4402.208,315.7c.038.345.431.5.448.854h-1.113C4401.6,316.143,4401.927,315.94,4402.208,315.7Z"
						fill="#756d69" fill-rule="evenodd" />
					<path id="Path_47801" data-name="Path 47801"
						d="M4388.563,315.735a.711.711,0,0,1,.2-.7C4388.947,315.333,4388.764,315.536,4388.563,315.735Z"
						fill="#383738" fill-rule="evenodd" />
					<path id="Path_47802" data-name="Path 47802"
						d="M4388.973,314.57c.066-.251-.008-.559.292-.714A.556.556,0,0,1,4388.973,314.57Z" fill="#383738"
						fill-rule="evenodd" />
					<path id="Path_47803" data-name="Path 47803"
						d="M4388.836,314.749c-.041-.073-.017-.109.065-.117C4388.881,314.672,4388.859,314.712,4388.836,314.749Z"
						fill="#383738" fill-rule="evenodd" />
					<path id="Path_47804" data-name="Path 47804"
						d="M4388.034,314.354c-.054.037-.12.11-.164.1-.114-.028-.086-.136-.059-.213.022-.044.093-.068.141-.1C4387.972,314.192,4388,314.249,4388.034,314.354Z"
						fill="#756d69" fill-rule="evenodd" />
					<path id="Path_47805" data-name="Path 47805"
						d="M4393,314.29c-.071-.312,0-.552.335-.654A.851.851,0,0,1,4393,314.29Z" fill="#514e4d"
						fill-rule="evenodd" />
					<path id="Path_47806" data-name="Path 47806"
						d="M4488.217,280.327a55.879,55.879,0,1,1-55.879-55.876A55.878,55.878,0,0,1,4488.217,280.327Z"
						fill="#756d69" fill-rule="evenodd" />
					<path id="Path_47807" data-name="Path 47807"
						d="M4422.737,327.847a9.237,9.237,0,0,0-.083-3.221,4.449,4.449,0,0,1,.256-2.125c.024-.017.053-.042.083-.063.189.248.725.322.6.689-.279.808.453,1.264.569,2.01a2.318,2.318,0,0,1,1.282-1.05c.2-.1.385-.265.381-.464-.019-.975.684-1.637,1.024-2.454.2-.48.273-.911-.172-1.289.028-.078.057-.16.084-.235.029-.113.059-.223.088-.338.346-.228-.264-.739.262-.945.077.37.149.708.219,1.04-.065.717.434.559.855.458a11.411,11.411,0,0,0-.61,2.639c-.035.624-.863.9-.71,1.6-.028.091-.057.186-.083.281-.386.2-.291.6-.377.918a.113.113,0,0,0-.089.082c-.1.009-.138.055-.084.15-.033.12-.066.239-.1.359a.914.914,0,0,0-.254.9c-.265.327-.046.7-.1,1.051Zm2.461-2.826c-.051-.133-.078-.208-.1-.278-.063.044-.154.075-.181.131-.036.1-.071.24.075.275C4425.044,325.163,4425.129,325.07,4425.2,325.021Z"
						fill="#a9918a" fill-rule="evenodd" />
					<path id="Path_47808" data-name="Path 47808"
						d="M4434.234,322.311a5.007,5.007,0,0,0-1.519,2.462c-.259,1.038-1.127,1.9-.878,3.074h-1.6c.239-.971,1.064-1.675,1.221-2.681.041-.076.08-.151.121-.225a1.1,1.1,0,0,0,.43-.84,4.68,4.68,0,0,0,.751-1.6c.9-1.118,1.3-2.513,2.1-3.682.129-.192.263-.387.392-.58a.448.448,0,0,1,.377.344c-.152.389-.3.776-.456,1.161A7.709,7.709,0,0,0,4434.234,322.311Z"
						fill="#f1e5d7" fill-rule="evenodd" />
					<path id="Path_47809" data-name="Path 47809"
						d="M4412.317,247.2c.009-.052.013-.121.025-.179-.644.275-1.295.538-1.945.8-.063.17-.125.339-.193.507.166-.142.353-.292.322-.529.529.365.813-.358,1.274-.288.042.035.083.066.126.1l.463.5a.576.576,0,0,0,.479-.126,1.011,1.011,0,0,0,.866-.312,1.766,1.766,0,0,0-1.128-.335C4412.512,247.333,4412.274,247.466,4412.317,247.2Z"
						fill="#a9918a" />
					<path id="Path_47810" data-name="Path 47810"
						d="M4413.627,246.984c-.091-.164-.169-.3-.233-.421-.25.111-.5.218-.749.325Z" fill="#a9918a" />
					<path id="Path_47811" data-name="Path 47811"
						d="M4419.533,243.64c-.144.295.561.271.241.609a2.254,2.254,0,0,1-1.332.883c-.027,0-.059-.021-.086-.021-.365-.012-.838-.254-1.052.16-.2.385.572.268.5.757-.935-.441-.534,1-1.5.779.621.422,1.231.4,1.528.931-.377.283-.685-.383-1.049-.049.025.346.416.275.586.514-.674.3-1.434-.009-2.1.357a.637.637,0,0,1-.721-.391,6.966,6.966,0,0,0,.718-.246c.355-.172-.066-.214-.07-.329a.543.543,0,0,0-.375-.588c-.009-.126-.023-.254-.033-.376.833.277.774-.835,1.413-.938l-.637-.277c0-.192,0-.383.007-.573.654.4.889-.239,1.278-.5.205.186.422.252.8,0h-.8c0-.06,0-.126-.006-.186h0c.55-.093,1.119-.01,1.615-.447A.871.871,0,0,1,4419.533,243.64Z"
						fill="#383738" fill-rule="evenodd" />
					<path id="Path_47812" data-name="Path 47812"
						d="M4420.959,242.148c.123.524-.449.706-.544,1.119-.307.093-.522.4-.882.373a.871.871,0,0,0-1.072.071c-.5.437-1.065.354-1.615.447.122-.3.013-.865.69-.478.265.156,2.066-1.446,2.169-1.838a.78.78,0,0,0,.706-.268C4420.5,241.851,4420.928,241.813,4420.959,242.148Z"
						fill="#514e4d" fill-rule="evenodd" />
					<path id="Path_47813" data-name="Path 47813"
						d="M4415.565,245.415l.637.277c-.639.1-.58,1.215-1.413.938A2.446,2.446,0,0,1,4415.565,245.415Z"
						fill="#514e4d" fill-rule="evenodd" />
					<path id="Path_47814" data-name="Path 47814"
						d="M4416.85,244.34c-.389.263-.624.907-1.278.5.024-.976.618-.885,1.27-.684,0,.06,0,.126.006.186Z"
						fill="#514e4d" fill-rule="evenodd" />
					<path id="Path_47815" data-name="Path 47815"
						d="M4414.822,247.006a.543.543,0,0,1,.375.588,6.267,6.267,0,0,1-2.581-.708c.339.031.675.065,1.011.1A1.071,1.071,0,0,0,4414.822,247.006Z"
						fill="#514e4d" fill-rule="evenodd" />
					<path id="Path_47816" data-name="Path 47816"
						d="M4428.006,240.207a.306.306,0,0,1-.047.392C4427.72,240.437,4427.8,240.313,4428.006,240.207Z"
						fill="#a9918a" fill-rule="evenodd" />
					<path id="Path_47817" data-name="Path 47817"
						d="M4408.287,240.422c.011-.051.024-.1.032-.151.025.011.047.025.068.036-.032.035-.069.075-.1.11Z"
						fill="#a9918a" fill-rule="evenodd" />
					<path id="Path_47818" data-name="Path 47818"
						d="M4425.417,241.253l.17.063c-.03.061-.066.126-.1.188C4425.463,241.422,4425.441,241.336,4425.417,241.253Z"
						fill="#383738" fill-rule="evenodd" />
					<path id="Path_47819" data-name="Path 47819" d="M4396.137,269.38l.065.038-.071.031Z" fill="#1a1311"
						fill-rule="evenodd" />
					<path id="Path_47820" data-name="Path 47820" d="M4428.272,239.882l-.2.148Z" fill="#a9918a"
						fill-rule="evenodd" />
					<path id="Path_47821" data-name="Path 47821"
						d="M4427.327,319.4c-.07-.332-.142-.67-.219-1.04-.526.206.084.717-.262.945a1.93,1.93,0,0,0-.791.055c-.242.064-.509-.184-.358-.312.622-.538-.138-.96-.053-1.356.22-1.038-.592-1.4-1.114-1.918-.238-.241-.408-.4-.322-.726a.417.417,0,0,1,.2-.27c.393-.131.186.473.579.443.044-.368.685-.941-.227-.991a6.091,6.091,0,0,1-1.328-.381c-.562-.144-1.058-1.471-.7-1.872.475-.53.063-.573-.267-.66-.713-.191-1.088-.576-.881-1.351a.863.863,0,0,0-.139-.591,3.342,3.342,0,0,1-.247-1.729,1.974,1.974,0,0,0-.989-2.17.9.9,0,0,1-.511-.919,19.461,19.461,0,0,1,.265-3.449c.125-.976.216-1.9-.933-2.414-.347-.155-.138-.385.139-.467.191-.057.342-.147.292-.365a.321.321,0,0,0-.392-.27c-.694.089-.626-.336-.535-.781a5.916,5.916,0,0,0-.046-1.736c-.072-.79-.543-1.532-.349-2.324a5.817,5.817,0,0,0,.071-2.909c-.39-1.3,1.036-1.834.916-2.921.774-.223.549-.862.572-1.391a3.821,3.821,0,0,1,.275-1.73,1.449,1.449,0,0,0-.081-1.283,3.327,3.327,0,0,1,.492-3.06c.1-.1.157-.216.028-.273-.473-.231-.086-.471-.043-.722a14.45,14.45,0,0,0,.462-4.911c-.1-.589-.773-.6-.77-1.207a5.887,5.887,0,0,0-1.082-2.835c-.235-.41-.187-1.172-.848-1.24-.776-.08-1-.715-1.12-1.21a4.542,4.542,0,0,0-.808-1.4c-.333-.529-1.029-.768-1.069-1.567-.021-.419.545-.713.17-1.142-.138-.159-.179-.32.056-.423s.311.062.39.239a12.4,12.4,0,0,0,2.263,3.337c.076.088.19.188.2.29.065.728.548.827,1.133.791.057.315-.115.7.14.943.745.7.816,1.723,1.305,2.546a8.68,8.68,0,0,1,1.635,3.914c.02.416.2.792-.127,1.146a1.191,1.191,0,0,0-.271.637c-.231,1.191.092,2.361-.255,3.613a12.276,12.276,0,0,0,.093,6.177c.092.381.225.721-.184,1.036-.269.209-.14.449.176.477a.674.674,0,0,1,.619.534.6.6,0,0,0,.545.381c.824.121,1.256-.144,1.117-1.013-.166-1.027.846-1.448.93-2.3.012-.123.176-.171.288-.1.606.38,1.274.139,1.915.191.336.029.652.043.834.387.247.462.666.509,1.139.521a1.459,1.459,0,0,1,1.506,1.376c-.47.246-.955.454-1.159,1.008a3.5,3.5,0,0,1-.922,1.256c-.543-.315-.51.287-.743.465-.064.054-.131.112-.2.163-.6.391-.33.881-.149,1.356a2.5,2.5,0,0,0-.242,2.181c.275.279.761.382.854-.039.164-.743.646-.65,1.13-.626a6.922,6.922,0,0,0,2.257-.551,6.432,6.432,0,0,1,1.914.255c-.424.505.015.577.342.59a3.01,3.01,0,0,0,2.289-2c-.905.043-1.218,1.142-2.113,1.182-.167-.62.429-1.069.363-1.677-.026-.225.175-.217.381-.162,1.269.356,1.269.347,1.707-.881a.574.574,0,0,0,.168-.493c-.014-.535.091-1.115-.5-1.449-.242-.354-.485-.712-.727-1.066-.228-1.361,1.532-.669,1.7-1.633.008-.06.2-.1.306-.124.046-.012.147.013.16.049.19.424.725.651.69,1.192a9.171,9.171,0,0,1-.592,3.772,10.939,10.939,0,0,0-.9,1.686c.6-.263.611-.252.847-.587a8.519,8.519,0,0,0,1.521-5.615,4.2,4.2,0,0,0-3.737-3.555,1.247,1.247,0,0,0-.97.375,2.807,2.807,0,0,0-.983,1.743,2.215,2.215,0,0,0-.369,1.07c-.447,0-.5.3-.523.653-.03.426-.25.426-.511.159a2.469,2.469,0,0,1-.236-2.709c.4-.687,1.187-1.045,1.489-1.809l.336-.043c.437.285.6.035.705-.35l.329-.04a13.189,13.189,0,0,0,2.538-.321c.326-.069.585.158.889.2a.528.528,0,0,0,.562.316c.047.014.091.031.141.051a.345.345,0,0,0,.384.313l.007.006c-.056.365.176.593.363.867a4.841,4.841,0,0,1,1.047,2.387c.1,1.228-.661,2.394-.223,3.639.02.067-.04.175-.087.246-.586.864-.765,1.925-1.619,2.7-.923.841-1.739,1.81-2.673,2.662-.225.2-.936.46-.549,1.09a.606.606,0,0,1-.172.034c-.244-.04-.36.079-.383.312l0,0a3.711,3.711,0,0,0-1.268.208,15.582,15.582,0,0,1-4.039,1.049.98.98,0,0,1,.982-1.057,7.775,7.775,0,0,0,2.017-.631c.463-.169,1.06-.3,1.26-1-1.327.978-2.886.321-4.32.719-.571.16-1.275-.062-1.822.462-.072.071-.336-.088-.5-.075-.545.056-1.067.282-1.008.892a2.836,2.836,0,0,0,.329,1.451,8.337,8.337,0,0,1-1.76,1.852,2.961,2.961,0,0,0-1.422,1.836,18.384,18.384,0,0,0-.023,3.029c.017.474.223.69.816.615a8.971,8.971,0,0,1,2.254-.443c.4.05.756,0,.933-.47a.573.573,0,0,1,.645-.376c.371.061.332.376.32.632-.026.505.131.825.7.75.79-.1.877.307.938.988.139,1.58-.226,3.193.291,4.751.041.124-.107.324-.188.476a3.084,3.084,0,0,0,.382,2.7,2.414,2.414,0,0,0-.062,2.266c.407.7-.012,1.471-.577,2.06-.067-.129-.132-.262-.2-.393.019-.227.041-.455.061-.68.176-.08.293-.2.2-.4s-.274-.16-.445-.164a2.89,2.89,0,0,1-.225-1.25,2.4,2.4,0,0,0-.364-1.742,5.761,5.761,0,0,0,.074,1.763c-.018.3-.039.584-.059.877-.365.074-.261.394-.354.623C4428.126,317.986,4428.327,319.006,4427.327,319.4Z"
						fill="#f6f6f6" fill-rule="evenodd" />
					<path id="Path_47822" data-name="Path 47822"
						d="M4418.639,259.333c.457,1.411.676,2.894,1.263,4.277a8.6,8.6,0,0,1,.356,1.792.245.245,0,0,0,0,.163c-.062.416,0,.894-.546,1.055.4-1.754-.832-2.636-1.893-3.639a2.432,2.432,0,0,1-1-1.6,6.681,6.681,0,0,0-.583-1.672c-.076-.2-.192-.414-.451-.266s-.425.348-.209.655a3.63,3.63,0,0,1,.311.429.324.324,0,0,1-.03.414c-.205.166-.313-.031-.414-.168-1.145-1.525-2.775-2.6-3.875-4.17a2.4,2.4,0,0,1-.455-.832,5.05,5.05,0,0,0-.487-1.952c-.1-.144-.392-.586.222-.722.211-.048-.12-.315-.222-.47-.274-.4-.925-.588-.556-1.325.125-.244-.326-.168-.533-.181l-.006,0a1.344,1.344,0,0,1,.382-.949c.488-.46.391-.834.087-1.367-.228-.407.589-.531.527-1.009.529.365.813-.358,1.274-.288-.087.075-.181.2-.069.272.139.09.152-.084.195-.172l.463.5c-.072.252-.067.622-.23.732-.844.56-.438.961.092,1.407a8.016,8.016,0,0,1,.658.715c-.065.139.328.535-.227.4-.241-.062-.457-.314-.75-.093.286.873.635,1.755-.223,2.553.326.153.891-.077.789.416-.138.668.516,1.226.176,1.886a.181.181,0,0,0,.121.276c.189.044.265-.092.293-.246s.01-.3.043-.442c.088-.387.2-.82.659-.846.38-.021.394.459.591.7.239.289-.01.435-.214.637a.719.719,0,0,0-.015,1.038c.263.263.438.05.522-.284.039-.164.264-.106.377-.007.4.352.918.662,1.02,1.2.123.624.621,1,.814,1.56.053.139.142.278.324.237s.193-.222.175-.361a3.316,3.316,0,0,1-.143-.777c.051-.36-.5-.8.131-1.077.135.009.275.022.414.029h.025c.184.312.141.77.593.907C4418.484,258.891,4418.562,259.11,4418.639,259.333Z"
						fill="#756d69" fill-rule="evenodd" />
					<path id="Path_47823" data-name="Path 47823"
						d="M4412.909,250.964a8.016,8.016,0,0,0-.658-.715c-.53-.446-.936-.847-.092-1.407.163-.11.158-.48.23-.732a.576.576,0,0,0,.479-.126c.056.664.293.9.886.4a1.222,1.222,0,0,1,.4-.133,5.522,5.522,0,0,0,.405.462c.162.151.544.24.36.5s-.646.46-.864.24c-.393-.39-.877-.209-1.293-.4.191.377.713.331.869.728-.121.246-.474-.01-.6.33a.691.691,0,0,0,.831.254c.925-.561,1.094.282,1.312.742a2.9,2.9,0,0,0,1.549,1.685.673.673,0,0,1,.443.526.747.747,0,0,0,.67.709.555.555,0,0,1,.436.515c.045.921.816,1.892-.142,2.764-.051.046-.034.171-.047.257-.133.021-.256.057-.3.212-.139-.011-.279-.024-.414-.033-.075-.4-.352-.574-.646-.832-.37-.323-.863-.051-1.081-.363a4.877,4.877,0,0,1-.568-1.275c-.332-.983-.631-1.981-.94-2.971-.082-.261-.293-.254-.5-.274l0-.007C4414.1,251.177,4413.568,251.023,4412.909,250.964Z"
						fill="#383738" fill-rule="evenodd" />
					<path id="Path_47824" data-name="Path 47824"
						d="M4435.434,295.565c-.387-.63.324-.885.549-1.09.934-.852,1.75-1.821,2.673-2.662.854-.774,1.033-1.835,1.619-2.7.047-.071.107-.179.087-.246-.438-1.245.322-2.411.223-3.639a4.841,4.841,0,0,0-1.047-2.387c-.187-.274-.419-.5-.363-.867.613.137.727.708,1.034,1.13,1.358,1.859,1.161,3.879.727,5.95-.58,2.773-2.41,4.6-4.6,6.165A3.784,3.784,0,0,1,4435.434,295.565Z"
						fill="#383738" fill-rule="evenodd" />
					<path id="Path_47825" data-name="Path 47825"
						d="M4466.818,249.7a.421.421,0,0,0,.136-.55c-.44-.869-.034-1.918-.6-2.765-.107-.169,0-.337.188-.425.112.015.247.077.325.033.228-.128-.057-.632.337-.6.443.034.292.585.536.841.08.082-.022.328-.02.5a5.52,5.52,0,0,0,.832,2.978c0,1.25,0,2.5,0,3.752-.647-.585-.619-1.513-1.127-2.2-.1.216-.193.419-.287.619A2.329,2.329,0,0,1,4466.818,249.7Z"
						fill="#756d69" fill-rule="evenodd" />
					<path id="Path_47826" data-name="Path 47826"
						d="M4427.327,319.4c1-.4.8-1.416,1.111-2.167.093-.229-.011-.549.354-.623.064.376.154.745.189,1.124s.188.542.566.47c.066.131.131.264.2.393-.111.329.22,1-.627.765-.1-.027-.365.29-.446.487a11.962,11.962,0,0,0-.929,2.664.648.648,0,0,1-.171-.016,11.411,11.411,0,0,1,.61-2.639C4427.761,319.961,4427.262,320.119,4427.327,319.4Z"
						fill="#756d69" fill-rule="evenodd" />
					<path id="Path_47827" data-name="Path 47827"
						d="M4435.628,318.586a.448.448,0,0,0-.377-.344,37.863,37.863,0,0,1,2.925-5.278l.27.254a23.174,23.174,0,0,1-2.035,4.009C4436.182,317.669,4436.414,318.457,4435.628,318.586Z"
						fill="#756d69" fill-rule="evenodd" />
					<path id="Path_47828" data-name="Path 47828"
						d="M4431.454,325.166c-.6-.18-.751.344-.953.673-.166.269-.263.439-.582.271.107-1.075.987-1.667,1.547-2.456.1-.151.38-.2.371-.447-.042-.7.4-.743.919-.7a4.68,4.68,0,0,1-.751,1.6c-.437.13-.521.438-.43.84C4431.534,325.015,4431.5,325.09,4431.454,325.166Z"
						fill="#383738" fill-rule="evenodd" />
					<path id="Path_47829" data-name="Path 47829"
						d="M4414.156,248.249a1.222,1.222,0,0,0-.4.133c-.593.5-.83.266-.886-.4a1.011,1.011,0,0,0,.866-.312,1.766,1.766,0,0,0-1.128-.335c-.094,0-.332.129-.289-.137.023-.141,0-.4.3-.314a6.267,6.267,0,0,0,2.581.708c0,.115.425.157.07.329a6.966,6.966,0,0,1-.718.246C4414.417,248.194,4414.286,248.22,4414.156,248.249Z"
						fill="#756d69" fill-rule="evenodd" />
					<path id="Path_47830" data-name="Path 47830"
						d="M4467.842,254.9c.034-.246.067-.5.1-.769.383.147.246.648.621.723-.014.664-.025,1.332-.041,2-.156-.006-.313-.015-.473-.019A1.864,1.864,0,0,1,4467.842,254.9Z"
						fill="#756d69" fill-rule="evenodd" />
					<path id="Path_47831" data-name="Path 47831"
						d="M4422.283,263.6c-.728.4-1.036.063-1.132-.646a.858.858,0,0,1-.01-.27c.1-.429-.454-1-.019-1.227s.32.7.806.735c.01.1.019.191.03.282a.62.62,0,0,0,.3.776C4422.264,263.368,4422.276,263.488,4422.283,263.6Z"
						fill="#514e4d" fill-rule="evenodd" />
					<path id="Path_47832" data-name="Path 47832"
						d="M4437.192,281.085a13.189,13.189,0,0,1-2.538.321C4435.4,280.468,4436.318,280.966,4437.192,281.085Z"
						fill="#383738" fill-rule="evenodd" />
					<path id="Path_47833" data-name="Path 47833"
						d="M4445.582,238.995c0-.121,0-.242,0-.364l0,.005a1.814,1.814,0,0,0,1.148-.341c.238-.158.469-.274.631.093A3.86,3.86,0,0,1,4445.582,238.995Z"
						fill="#756d69" fill-rule="evenodd" />
					<path id="Path_47834" data-name="Path 47834"
						d="M4427.572,322.5a.648.648,0,0,0,.171.016c0,.694.117,1.449-.881,1.586C4426.709,323.394,4427.537,323.123,4427.572,322.5Z"
						fill="#383738" fill-rule="evenodd" />
					<path id="Path_47835" data-name="Path 47835"
						d="M4418.4,258.669c-.452-.137-.409-.6-.589-.911.1-.011.212-.024.32-.04C4418.651,257.912,4418.439,258.316,4418.4,258.669Z"
						fill="#383738" fill-rule="evenodd" />
					<path id="Path_47836" data-name="Path 47836"
						d="M4422.256,263.253a.62.62,0,0,1-.3-.776C4422.411,262.6,4422.473,262.876,4422.256,263.253Z"
						fill="#383738" fill-rule="evenodd" />
					<path id="Path_47837" data-name="Path 47837"
						d="M4434.325,281.446c-.1.385-.268.635-.705.35A.973.973,0,0,1,4434.325,281.446Z" fill="#383738"
						fill-rule="evenodd" />
					<path id="Path_47838" data-name="Path 47838"
						d="M4438.643,281.605a.528.528,0,0,1-.562-.316C4438.333,281.276,4438.567,281.3,4438.643,281.605Z"
						fill="#383738" fill-rule="evenodd" />
					<path id="Path_47839" data-name="Path 47839"
						d="M4434.879,295.911c.023-.233.139-.352.383-.312A.392.392,0,0,1,4434.879,295.911Z"
						fill="#383738" fill-rule="evenodd" />
					<path id="Path_47840" data-name="Path 47840"
						d="M4439.168,281.969a.345.345,0,0,1-.384-.313A.345.345,0,0,1,4439.168,281.969Z" fill="#383738"
						fill-rule="evenodd" />
					<path id="Path_47841" data-name="Path 47841"
						d="M4418.135,257.718c-.108.016-.215.029-.32.04l-.029.005c.041-.151.164-.187.3-.208C4418.1,257.61,4418.117,257.664,4418.135,257.718Z"
						fill="#514e4d" fill-rule="evenodd" />
					<path id="Path_47842" data-name="Path 47842"
						d="M4392.039,287.421a2.214,2.214,0,0,1-.361-1.174,4.315,4.315,0,0,1,1.774,1.517c.084.11.207.243.058.381a.31.31,0,0,1-.24.033,2.342,2.342,0,0,1-.634-.212,20.528,20.528,0,0,1,1.547,1.6,3.114,3.114,0,0,0,1.1-.328c1.256-.685,1.466-1.809,1.406-3.1s-.467-1.607-1.653-1.045a3.311,3.311,0,0,1-2.817.031,16.636,16.636,0,0,1-1.7-.779,1.409,1.409,0,0,0-1.507.1c-.438.313-.009.624.191.938A20.733,20.733,0,0,1,4392.039,287.421Z"
						fill="#1a1311" fill-rule="evenodd" />
					<path id="Path_47843" data-name="Path 47843"
						d="M4391.508,294.692c.323-.035.36.2.394.427-.086.006-.175.013-.261.021A.485.485,0,0,1,4391.508,294.692Z"
						fill="#1a1311" fill-rule="evenodd" />
					<path id="Path_47844" data-name="Path 47844"
						d="M4391.033,294.273a.38.38,0,0,0,.139-.039c.061.126.125.252.187.38C4390.979,294.76,4391.029,294.495,4391.033,294.273Z"
						fill="#1a1311" fill-rule="evenodd" />
					<path id="Path_47845" data-name="Path 47845" d="M4390.951,299.351l.165.176Z" fill="#1a1311"
						fill-rule="evenodd" />
					<path id="Path_47846" data-name="Path 47846"
						d="M4426.586,319.732a.581.581,0,0,0,.211-.364c-.3.049-.856-.17-1.117-.154.654-1.208-.291-2.583-1.15-3.438-.238-.241-.408-.4-.322-.726a.417.417,0,0,1,.2-.27c.393-.131.186.473.579.443.044-.368.685-.941-.227-.991a6.091,6.091,0,0,1-1.328-.381c-.562-.144-1.058-1.471-.7-1.872.475-.53.063-.573-.267-.66-.713-.191-1.088-.576-.881-1.351a.863.863,0,0,0-.139-.591,3.342,3.342,0,0,1-.247-1.729,1.974,1.974,0,0,0-.989-2.17.9.9,0,0,1-.511-.919,19.461,19.461,0,0,1,.265-3.449c.125-.976.216-1.9-.933-2.414-.347-.155-.138-.385.139-.467.191-.057.342-.147.292-.365a.321.321,0,0,0-.392-.27c-.694.089-.626-.336-.535-.781a5.916,5.916,0,0,0-.046-1.736c-.072-.79-.543-1.532-.349-2.324a5.817,5.817,0,0,0,.071-2.909c-.39-1.3,1.036-1.834.916-2.921.774-.223.549-.862.572-1.391a3.821,3.821,0,0,1,.275-1.73,1.449,1.449,0,0,0-.081-1.283,3.327,3.327,0,0,1,.492-3.06c.1-.1.157-.216.028-.273-.473-.231-.086-.471-.043-.722a14.45,14.45,0,0,0,.462-4.911c-.1-.589-.773-.6-.77-1.207a5.887,5.887,0,0,0-1.082-2.835c-.235-.41-.187-1.172-.848-1.24-.776-.08-1-.715-1.12-1.21a4.542,4.542,0,0,0-.808-1.4c-.333-.529-1.029-.768-1.069-1.567-.021-.419.545-.713.17-1.142-.138-.159-.179-.32.056-.423s.311.062.39.239a12.4,12.4,0,0,0,2.263,3.337c.076.088.19.188.2.29.065.728.548.827,1.133.791.114-.181.226-.363.34-.542l.026-.029c.4-1.754-.832-2.636-1.893-3.639a2.432,2.432,0,0,1-1-1.6,6.681,6.681,0,0,0-.583-1.672c-.076-.2-.192-.414-.451-.266s-.425.348-.209.655a3.63,3.63,0,0,1,.311.429.324.324,0,0,1-.03.414c-.205.166-.313-.031-.414-.168-1.145-1.525-2.775-2.6-3.875-4.17a2.4,2.4,0,0,1-.455-.832,5.05,5.05,0,0,0-.487-1.952c-.1-.144-.392-.586.222-.722.211-.048-.12-.315-.222-.47-.274-.4-.925-.588-.556-1.325.125-.244-.326-.168-.533-.181v.245c-.2-.082-.037-.164-.006-.248a1.344,1.344,0,0,1,.382-.949c.488-.46.391-.834.087-1.37a13.818,13.818,0,0,1-3.115,4.439c-.555.52-1.116,1-1.692,1.446-.274.3-.548.593-.841.866a5.119,5.119,0,0,0-1.213,2.984c-.382,1.94-1.209,3.7-1.769,5.576-.234.785-.245,2.079-.8,2.692.02.02.045.021.066.037a5.145,5.145,0,0,0-1.213,1.8,5.381,5.381,0,0,0-.1.873,5.357,5.357,0,0,1-.842,2.916c-.257.347-.375.824-.6,1.149-1.483,2.176-3.961,3.593-5.708,5.584a17.628,17.628,0,0,1-3.255,3.424c-.277.184-.64.571-.611.823.128,1.115.041,2.35,1.182,3.086a1.911,1.911,0,0,0-.221-1.024c-.158-.348-.729-.688-.247-1.033a1.409,1.409,0,0,1,1.507-.1,16.636,16.636,0,0,0,1.7.779,3.311,3.311,0,0,0,2.817-.031c1.186-.562,1.595-.259,1.653,1.045s-.15,2.413-1.406,3.1a4.676,4.676,0,0,1-1.969.408.7.7,0,0,1-.684-.477,4.535,4.535,0,0,0-2.89-2.375c.12.547.619.668,1.015.9a2.1,2.1,0,0,1,.12,3.835c-.544.37-1.155.769-1.151,1.575,0,.177-.025.409.162.471.279.089.215-.294.4-.367-.029-.52.061-.838.688-.511.572.3,1.318.319,1.583,1.068l.018.033c.375-.02.653.436,1.072.217a.312.312,0,0,1,.23.063c-.007.685.751,1.026.751,1.7.026.058.051.115.076.176.994.141.679.8.553,1.384l.047.035a.382.382,0,0,1-.053-.035c-.119,0-.235-.009-.354-.011a1.363,1.363,0,0,0-.547.549c-.03.2-.2.184-.343.219.1.661-.49,1.272-.11,1.969.12.214-.111.268-.316.26a2.535,2.535,0,0,1-1.384-.447,1.781,1.781,0,0,0-1.02-.24c.036.161.156.233.289.311,1.5.848,1.564,1.428.7,2.9a4.5,4.5,0,0,0-.649,3.855c.112.331.3.621.412.962a4.424,4.424,0,0,0,1.848,2.577,14.231,14.231,0,0,0,3.345,1.069c1.929.493,3.925.142,5.875.01a8.3,8.3,0,0,1,3.045.127c1.275.445,2.724.113,3.91,1.144a19.46,19.46,0,0,1,2.353,1.729c.961,1.187,1.867,2.47,2.758,3.725a42.685,42.685,0,0,0,3.9,4.937c.387.4.363.014.454-.164l.041.057c.08.587.194.8.514.7a8.29,8.29,0,0,0,.794.838l-.284-1.1.071-.042a2.1,2.1,0,0,0,.639-.467c.481-.736,1.059-.69,1.718-.308.024-.017.053-.042.083-.063.107-.43.088-.729-.121-.856C4424.17,322.178,4428.941,321.9,4426.586,319.732ZM4397,309.4a2.176,2.176,0,0,1-1.6-.177c1.275.357,2.37-.366,3.833-.3A15.434,15.434,0,0,0,4397,309.4Zm6.2-38.642c-.083.089-.175.177-.261.263-.155-.128-.53.086-.506-.133.045-.369-.088-.891.475-1.055.064-.035.125-.077.192-.11,0,0,.03.039.049.059-.07.031-.136.062-.207.092C4403.244,270.11,4402.9,270.528,4403.205,270.758Zm-.054-2.882c-.356-.187-.828-.332-.362-.866.407-.1.77-.059.83.433C4403.65,267.712,4403.619,268.074,4403.151,267.876Zm-.326-2.464a3.411,3.411,0,0,0-1.379.705C4401.652,265.688,4402.055,265.549,4402.825,265.412Zm3.545,41.574a1.214,1.214,0,0,0-1,.6c-.268.4-.755.416-1.228.478,1.1-.416,1.9-1.474,3.1-1.667a3.48,3.48,0,0,1,1.334.1A15.111,15.111,0,0,1,4406.37,306.986Zm2.384-31.863a5.428,5.428,0,0,1-3.257.531,4.886,4.886,0,0,0-1.139-.084c-.369-.106-.739-.208-1.109-.314-.237.146-.45-.008-.673-.044a3.307,3.307,0,0,1-.808.331c-1.034.124-1.142-.042-.8-1.017a2.633,2.633,0,0,0,.252-.94c-.054-1.07.517-1.264,1.4-1.109.1.018.212-.054.319-.079.178.024.318-.014.373-.2-.007-.066-.014-.129-.024-.2.912-.385,1.565.263,2.3.58.241.106.473.239.706.359a1.485,1.485,0,0,1,1.478.634.729.729,0,0,1,.15.051,1.281,1.281,0,0,1,.84.19C4409.437,274.24,4409.467,274.776,4408.754,275.123Zm.858-6.361c-1.134-.284-2.211-.736-3.355-.975-.472-.1-.654.323-1,.442l-.545,0-.3-.178c-.072.07-.146.121-.229.012-.177-.555.089-1.179-.254-1.717.422-.272.892-.717,1.359-.5a15.28,15.28,0,0,0,3.718,1.042,1.386,1.386,0,0,1,.908.677,1.417,1.417,0,0,0,1.053.737C4410.415,269.126,4410.452,268.975,4409.612,268.762Z"
						fill="#f6f6f6" fill-rule="evenodd" />
					<path id="Path_47847" data-name="Path 47847"
						d="M4426.674,319.88c-.056-.061-.113-.118-.17-.177.084-.018.168-.04.254-.058C4426.731,319.72,4426.7,319.8,4426.674,319.88Z"
						fill="#514e4d" fill-rule="evenodd" />
					<path id="Path_47848" data-name="Path 47848"
						d="M4409.536,251.126v.245c-.2-.082-.037-.164-.006-.248Z" fill="#756d69" fill-rule="evenodd" />
					<path id="Path_47849" data-name="Path 47849" d="M4416.848,244.344h.8c-.375.248-.592.182-.8,0Z"
						fill="#514e4d" fill-rule="evenodd" />
					<path id="Path_47850" data-name="Path 47850"
						d="M4430.678,240.813c-.386.359-.779.686-1.337.313.225-.2.573-.284.556-.674C4430.217,240.443,4430.543,240.419,4430.678,240.813Z"
						fill="#756d69" fill-rule="evenodd" />
					<path id="Path_47851" data-name="Path 47851"
						d="M4433.434,284.475a2.807,2.807,0,0,1,.983-1.743,1.247,1.247,0,0,1,.97-.375,4.2,4.2,0,0,1,3.737,3.555,8.519,8.519,0,0,1-1.521,5.615c-.236.335-.249.324-.847.587a10.939,10.939,0,0,1,.9-1.686,9.171,9.171,0,0,0,.592-3.772c.035-.541-.5-.768-.69-1.192-.013-.036-.114-.061-.16-.049-.11.027-.3.064-.306.124-.169.964-1.929.272-1.7,1.633a.887.887,0,0,1-.348-.376A11.67,11.67,0,0,0,4433.434,284.475Z"
						fill="#383738" fill-rule="evenodd" />
					<path id="Path_47852" data-name="Path 47852"
						d="M4429.567,297.172a5.351,5.351,0,0,1-2.145.338,1.082,1.082,0,0,0-.921.425,2.836,2.836,0,0,1-.329-1.451c-.059-.61.463-.836,1.008-.892.168-.013.432.146.5.075.547-.524,1.251-.3,1.822-.462,1.434-.4,2.993.259,4.32-.719-.2.694-.8.829-1.26,1a7.775,7.775,0,0,1-2.017.631A.98.98,0,0,0,4429.567,297.172Z"
						fill="#756d69" fill-rule="evenodd" />
					<path id="Path_47853" data-name="Path 47853"
						d="M4433.434,284.475a11.67,11.67,0,0,1,1.613,2.321.887.887,0,0,0,.348.376c.242.354.485.712.727,1.066.064.52-.049,1.1.5,1.449a.574.574,0,0,1-.168.493,5.673,5.673,0,0,1-3.239-2.725c-.317-.573-.047-1.272-.154-1.91A2.215,2.215,0,0,1,4433.434,284.475Z"
						fill="#151b1c" fill-rule="evenodd" />
					<path id="Path_47854" data-name="Path 47854"
						d="M4427.576,291.906a15.4,15.4,0,0,1,4,.965,6.922,6.922,0,0,1-2.257.551c-.484-.024-.966-.117-1.13.626-.093.421-.579.318-.854.039A2.5,2.5,0,0,1,4427.576,291.906Z"
						fill="#756d69" fill-rule="evenodd" />
					<path id="Path_47855" data-name="Path 47855"
						d="M4433.219,287.455c-.317-.573-.047-1.272-.154-1.91-.447,0-.5.3-.523.653-.03.426-.25.426-.511.159a2.469,2.469,0,0,1-.236-2.709c.4-.687,1.187-1.045,1.489-1.809a.881.881,0,0,0-.748.209,1.855,1.855,0,0,1-1.537.255,7.88,7.88,0,0,0-2.611.221,6.431,6.431,0,0,0-2.5,1.263c-.678.429-.862.537-1.53-.164a2.3,2.3,0,0,1-.847-2.228c.33-1.137-.14-2.144-.172-3.206,0-.274-.056-.506.165-.733a1.49,1.49,0,0,0-.153-2.379c-.207-.174-.51-.3-.262-.622.546-.713.621-1.316-.32-1.757a.284.284,0,0,1-.128-.223,2.973,2.973,0,0,0-1.44-2.91c-.061-.042-.063-.163-.1-.246a6.93,6.93,0,0,1-.292-4.439c.085-.37.292-.428.655-.357.775.141.934-.063.816-.92-.728.4-1.036.063-1.132-.646a.858.858,0,0,1-.01-.27c.1-.429-.454-1-.019-1.227s.32.7.806.735a4.9,4.9,0,0,0-.159-2.694c-.106-.511-.41-1.205-.974-1.358-.48-.133-1.039.368-1.16.779-.207.692-.569.509-1,.411.457,1.411.676,2.894,1.263,4.277a8.6,8.6,0,0,1,.356,1.792c.015.041.035.076.047.119,0,.009-.032.029-.051.044-.062.416,0,.894-.546,1.055l-.026.029c-.114.179-.226.361-.34.542.057.315-.115.7.14.943.745.7.816,1.723,1.305,2.546a8.68,8.68,0,0,1,1.635,3.914c.02.416.2.792-.127,1.146a1.191,1.191,0,0,0-.271.637c-.231,1.191.092,2.361-.255,3.613a12.276,12.276,0,0,0,.093,6.177c.092.381.225.721-.184,1.036-.269.209-.14.449.176.477a.674.674,0,0,1,.619.534.6.6,0,0,0,.545.381c.824.121,1.256-.144,1.117-1.013-.166-1.027.846-1.448.93-2.3.012-.123.176-.171.288-.1.606.38,1.274.139,1.915.191.336.029.652.043.834.387.247.462.666.509,1.139.521a1.459,1.459,0,0,1,1.506,1.376c-.47.246-.955.454-1.159,1.008a3.5,3.5,0,0,1-.922,1.256.678.678,0,0,1-.743.465c-.064.054-.131.112-.2.163-.6.391-.33.881-.149,1.356a15.4,15.4,0,0,1,4,.965,6.432,6.432,0,0,1,1.914.255l.518-.226c-.167-.62.429-1.069.363-1.677-.026-.225.175-.217.381-.162,1.269.356,1.269.347,1.707-.881A5.673,5.673,0,0,1,4433.219,287.455Zm-11.379-4.983-.047-.04c.02-.009.04-.03.055-.028s.031.027.046.039A.358.358,0,0,1,4421.84,282.472Z"
						fill="#383738" fill-rule="evenodd" />
					<path id="Path_47856" data-name="Path 47856"
						d="M4433.489,293.126l.518-.226c.9-.04,1.208-1.139,2.113-1.182a3.01,3.01,0,0,1-2.289,2C4433.5,293.7,4433.065,293.631,4433.489,293.126Z"
						fill="#756d69" fill-rule="evenodd" />
					<path id="Path_47857" data-name="Path 47857"
						d="M4429.547,318.206c-.378.072-.532-.1-.566-.47s-.125-.748-.189-1.124c.02-.293.041-.582.059-.877l.29-.021a2.89,2.89,0,0,0,.225,1.25.8.8,0,0,0,.242.562C4429.588,317.751,4429.566,317.979,4429.547,318.206Z"
						fill="#a9918a" fill-rule="evenodd" />
					<path id="Path_47858" data-name="Path 47858"
						d="M4429.141,315.714l-.29.021a5.761,5.761,0,0,1-.074-1.763A2.4,2.4,0,0,1,4429.141,315.714Z"
						fill="#756d69" fill-rule="evenodd" />
					<path id="Path_47859" data-name="Path 47859"
						d="M4436.626,289.687c-.553-.349-.44-.929-.5-1.449C4436.717,288.572,4436.612,289.152,4436.626,289.687Z"
						fill="#383738" fill-rule="evenodd" />
					<path id="Path_47860" data-name="Path 47860"
						d="M4428.666,289.922a.678.678,0,0,1-.743.465C4428.156,290.209,4428.123,289.607,4428.666,289.922Z"
						fill="#383738" fill-rule="evenodd" />
					<path id="Path_47861" data-name="Path 47861"
						d="M4429.608,317.526a.8.8,0,0,1-.242-.562c.171,0,.36-.026.445.164S4429.784,317.446,4429.608,317.526Z"
						fill="#756d69" fill-rule="evenodd" />
					<path id="Path_47862" data-name="Path 47862" d="M4445.579,238.631l-.049-.046.045.051Z"
						fill="#756d69" fill-rule="evenodd" />
					<path id="Path_47863" data-name="Path 47863"
						d="M4421.84,282.472l-.047-.04c.02-.009.04-.03.055-.028s.031.027.046.039A.358.358,0,0,1,4421.84,282.472Z"
						fill="#514e4d" fill-rule="evenodd" />
					<path id="Path_47864" data-name="Path 47864"
						d="M4420.254,265.565a.245.245,0,0,1,0-.163c.015.041.035.076.047.119C4420.307,265.53,4420.273,265.55,4420.254,265.565Z"
						fill="#514e4d" fill-rule="evenodd" />
					<path id="Path_47865" data-name="Path 47865"
						d="M4412.909,250.964c.659.059,1.187.213.73,1.048-.125.062-.245.116-.362.184,0,0,.029.12.053.123.22.027.282-.121.311-.3.2.02.414.013.5.274.309.99.608,1.988.94,2.971a4.877,4.877,0,0,0,.568,1.275c.218.312.711.04,1.081.363.294.258.571.436.646.832-.627.276-.08.717-.131,1.077a3.316,3.316,0,0,0,.143.777c.018.139.012.314-.175.361s-.271-.1-.324-.237c-.193-.558-.691-.936-.814-1.56-.1-.538-.618-.848-1.02-1.2-.113-.1-.338-.157-.377.007-.084.334-.259.547-.522.284a.719.719,0,0,1,.015-1.038c.2-.2.453-.348.214-.637-.2-.241-.211-.721-.591-.7-.456.026-.571.459-.659.846-.033.141-.017.3-.043.442s-.1.29-.293.246a.181.181,0,0,1-.121-.276c.34-.66-.314-1.218-.176-1.886.1-.493-.463-.263-.789-.416.858-.8.509-1.68.223-2.553.293-.221.509.031.75.093C4413.237,251.5,4412.844,251.1,4412.909,250.964Z"
						fill="#514e4d" fill-rule="evenodd" />
					<path id="Path_47866" data-name="Path 47866"
						d="M4411.926,247.61c-.043.088-.056.262-.195.172-.112-.073-.018-.2.069-.272C4411.842,247.545,4411.883,247.576,4411.926,247.61Z"
						fill="#a9918a" fill-rule="evenodd" />
					<path id="Path_47867" data-name="Path 47867"
						d="M4431.479,238.452l-.133.107c-.039-.148.1-.06.138-.1Z" fill="#756d69" fill-rule="evenodd" />
					<path id="Path_47868" data-name="Path 47868"
						d="M4465.383,268.253c.063-.059.121-.117.178-.179v0l-.181.179Z" fill="#383738"
						fill-rule="evenodd" />
					<path id="Path_47869" data-name="Path 47869"
						d="M4436.467,320.172c0-.117.008-.236.01-.35.107.031.26.035.255.184S4436.584,320.159,4436.467,320.172Z"
						fill="#a9918a" fill-rule="evenodd" />
					<path id="Path_47870" data-name="Path 47870"
						d="M4404.181,268.065c-.177-.555.089-1.179-.254-1.717.422-.272.892-.717,1.359-.5a15.28,15.28,0,0,0,3.718,1.042,1.386,1.386,0,0,1,.908.677,1.417,1.417,0,0,0,1.053.737c-.55.826-.513.675-1.353.462-1.134-.284-2.211-.736-3.355-.975-.472-.1-.654.323-1,.442l-.545,0-.3-.178C4404.334,268.059,4404.258,268.063,4404.181,268.065Z"
						fill="#1a1311" fill-rule="evenodd" />
					<path id="Path_47871" data-name="Path 47871"
						d="M4403.249,275.256c-.237.146-.45-.008-.673-.044.167-.358-1.077-.306-.249-.856h-.021a.688.688,0,0,0,.678-.5c.245-.084.593-.082.579-.434-.016-.332-.3-.48-.6-.56,0-.157-.007-.313-.014-.468.178.024.318-.014.373-.2,1.053.436,1.985,1.186,3.193,1.21.051.018.1.034.149.047a1.283,1.283,0,0,1,.172,1.727c-.106,0-.205,0-.31.005-.05-.135-.117-.392-.151-.387-.658.084-1.014-.352-1.4-.761-.1-.1-.283-.066-.414.028C4403.854,274.163,4403.667,274.838,4403.249,275.256Z"
						fill="#1a1311" fill-rule="evenodd" />
					<path id="Path_47872" data-name="Path 47872"
						d="M4403.249,275.256c.418-.418.6-1.093,1.31-1.193.193,1.135.822,1.493,1.962,1.12.1-.005.2-.005.31-.005,1.531-.271,1.689-.495,1.093-1.555a1.281,1.281,0,0,1,.84.19c.673.427.7.963-.01,1.31a5.428,5.428,0,0,1-3.257.531,4.886,4.886,0,0,0-1.139-.084C4403.989,275.464,4403.619,275.362,4403.249,275.256Z"
						fill="#1a1311" fill-rule="evenodd" />
					<path id="Path_47873" data-name="Path 47873"
						d="M4402.984,273.86a.688.688,0,0,1-.678.5h.021c-.828.55.416.5.249.856a3.307,3.307,0,0,1-.808.331c-1.034.124-1.142-.042-.8-1.017a2.633,2.633,0,0,0,.252-.94c-.054-1.07.517-1.264,1.4-1.109.1.018.212-.054.319-.079.007.155.01.311.014.468-.03.032-.064.065-.1.1-.477-.144-.729.1-.879.514-.057.156-.169.326,0,.486.4.367.617-.2.948-.177Z"
						fill="#1a1311" fill-rule="evenodd" />
					<path id="Path_47874" data-name="Path 47874"
						d="M4406.51,273.4c-1.208-.02-2.14-.77-3.193-1.206-.007-.066-.014-.129-.024-.2.912-.385,1.565.263,2.3.58.241.106.473.239.706.359C4406.37,273.092,4406.441,273.247,4406.51,273.4Z"
						fill="#1a1311" fill-rule="evenodd" />
					<path id="Path_47875" data-name="Path 47875"
						d="M4403.277,266.1c.934-.3,1.774-.208,1.94,1.22.087.78.036,1.827-1.054,1.273C4403.334,268.07,4402.237,267.671,4403.277,266.1Z"
						fill="#1a1311" fill-rule="evenodd" />
					<g id="Group_22672" data-name="Group 22672">
						<path id="Path_47876" data-name="Path 47876"
							d="M4394.709,295.946c-.025-.058-.05-.115-.076-.173-.312-.708-.469-1.472-1.319-1.7a2.166,2.166,0,0,1-.568-.133c-.287-.175-.358-.572-.659-.771a11.09,11.09,0,0,0-1.108-.475c-.627-.327-.717-.009-.688.511.548.144.4.772.742,1.07a.355.355,0,0,0,.135-.039c.065.126.129.252.191.38a.964.964,0,0,0,.149.078c.322-.035.36.194.394.427-.086.006-.175.013-.261.021-.252.861-.389,1.788-1.318,2.251a2.8,2.8,0,0,0,.6,1.951l.031.009.165.176a.254.254,0,0,0,.066.1,1.781,1.781,0,0,1,1.02.24,2.535,2.535,0,0,0,1.384.447c.205.008.436-.046.316-.26a2.131,2.131,0,0,1,.871-2.616c.3-.176.557-.2.586-.613C4395.4,296.324,4395.255,296.026,4394.709,295.946Zm-3.313-2.561a.68.68,0,0,1,.385.112A.68.68,0,0,0,4391.4,293.385Zm1.754,4.521-.059-.058c.027-.168.052-.334.074-.5.068.036.16.055.193.108C4393.5,297.689,4393.389,297.833,4393.15,297.906Z"
							fill="#1a1311" />
						<path id="Path_47877" data-name="Path 47877" d="M4395.254,297.34l.008-.007h-.006Z"
							fill="#1a1311" />
					</g>
					<path id="Path_47878" data-name="Path 47878"
						d="M4403.205,270.758c-.083.089-.175.177-.261.263-.155-.128-.53.086-.506-.133.045-.369-.088-.891.475-1.055l.034.041C4403.244,270.11,4402.9,270.528,4403.205,270.758Z"
						fill="#1a1311" fill-rule="evenodd" />
					<path id="Path_47879" data-name="Path 47879"
						d="M4402.913,269.833c.064-.035.125-.077.192-.11,0,0,.03.039.049.059-.07.031-.136.062-.207.092Z"
						fill="#1a1311" fill-rule="evenodd" />
					<path id="Path_47880" data-name="Path 47880"
						d="M4402.569,269.148c.045.055.09.11.133.165-.2.053-.088-.11-.119-.174Z" fill="#1a1311"
						fill-rule="evenodd" />
					<path id="Path_47881" data-name="Path 47881"
						d="M4395.254,297.34a.356.356,0,0,1,.055.028l-.047-.035Z" fill="#756d69" fill-rule="evenodd" />
					<path id="Path_47882" data-name="Path 47882"
						d="M4391.678,286.247a4.315,4.315,0,0,1,1.774,1.517c.084.11.207.243.058.381a.31.31,0,0,1-.24.033A1.815,1.815,0,0,1,4391.678,286.247Z"
						fill="#514e4d" fill-rule="evenodd" />
					<path id="Path_47883" data-name="Path 47883"
						d="M4407.924,273.623c.6,1.06.438,1.284-1.093,1.555a1.283,1.283,0,0,0-.172-1.727c.372.041.745.083,1.115.121A.729.729,0,0,1,4407.924,273.623Z"
						fill="#1a1311" fill-rule="evenodd" />
					<path id="Path_47884" data-name="Path 47884"
						d="M4407.774,273.572c-.37-.038-.743-.08-1.115-.121-.05-.013-.1-.029-.149-.047-.069-.157-.14-.312-.214-.466A1.485,1.485,0,0,1,4407.774,273.572Z"
						fill="#1a1311" fill-rule="evenodd" />
					<path id="Path_47885" data-name="Path 47885"
						d="M4404.181,268.065c.077,0,.153-.006.229-.012C4404.338,268.123,4404.264,268.174,4404.181,268.065Z"
						fill="#1a1311" fill-rule="evenodd" />
					<path id="Path_47886" data-name="Path 47886" d="M4433.549,235.855v0l.047-.011Z" fill="#a9918a"
						fill-rule="evenodd" />
					<path id="Path_47887" data-name="Path 47887"
						d="M4413.641,252.019c-.029.179-.091.327-.311.3-.024,0-.056-.121-.053-.123.117-.068.237-.122.362-.184Z"
						fill="#383738" fill-rule="evenodd" />
					<path id="Path_47888" data-name="Path 47888"
						d="M4406.521,275.183c-1.14.373-1.769.015-1.962-1.12.131-.094.317-.132.414-.028.383.409.739.845,1.4.761C4406.4,274.791,4406.471,275.048,4406.521,275.183Z"
						fill="#1a1311" fill-rule="evenodd" />
					<path id="Path_47889" data-name="Path 47889"
						d="M4402.958,272.866c.3.08.589.228.6.56.014.352-.334.35-.579.434l-.049-.073c-.024-.274-.048-.551-.072-.823C4402.894,272.931,4402.928,272.9,4402.958,272.866Z"
						fill="#1a1311" fill-rule="evenodd" />
					<path id="Path_47890" data-name="Path 47890" d="M4402.327,274.356h0Z" fill="#1a1311"
						fill-rule="evenodd" />
					<path id="Path_47891" data-name="Path 47891"
						d="M4402.863,272.964c.024.272.048.549.072.823-.331-.025-.553.544-.948.177-.172-.16-.06-.33,0-.486C4402.134,273.065,4402.386,272.82,4402.863,272.964Z"
						fill="#1a1311" fill-rule="evenodd" />
					<path id="Path_47892" data-name="Path 47892"
						d="M4393.091,297.848c.027-.168.052-.334.074-.5.068.036.16.055.193.108.137.237.031.381-.208.454Z"
						fill="#1a1311" fill-rule="evenodd" />
					<path id="Path_47893" data-name="Path 47893"
						d="M4473.213,277.912l-3.8,1.99a14.58,14.58,0,0,0-.858,1.851v-1.4l.858-.45c.055-.1.115-.21.174-.312,5.027-8.8-3.644-6.148-1.733-12.97s1.871-10.481,1.592-19.38c-.193-6.19-3.637-3.441-7.141-3.487-.157-.113-.315-.227-.47-.342a10.572,10.572,0,0,0-1.826-1.025c-.343-.166-.613-.321-.711-.7-.231-.084-.508-.11-.585-.426.3-.223.54.068.8.081a1.157,1.157,0,0,0-1.184-.712,7.914,7.914,0,0,1-.83-.073c-.58-.075-1.818-1.239-2.492-1.5a16.308,16.308,0,0,0-3.993-.864,131.782,131.782,0,0,0-13.315-.591,6.918,6.918,0,0,0-1.992.025c-.614.19-1.169,1.132-1.7,1.2-5.98.731-10.948,1.648-11.861,1.624-2.352-.052-11.749,7.374-11.749,7.374l11.38,16.739c-.089-.006-.189-.016-.31-.036-.363-.071-.57-.013-.655.357a6.93,6.93,0,0,0,.292,4.439c.035.083.037.2.1.246a2.973,2.973,0,0,1,1.44,2.91.284.284,0,0,0,.128.223c.941.441.866,1.044.32,1.757-.248.323.055.448.262.622a1.49,1.49,0,0,1,.153,2.379c-.221.227-.17.459-.165.733.032,1.062.5,2.069.172,3.206a2.3,2.3,0,0,0,.847,2.228c.668.7.852.593,1.53.164a6.431,6.431,0,0,1,2.5-1.263A7.88,7.88,0,0,1,4431,282.3a3,3,0,0,0,.32.045,7.274,7.274,0,1,1,6.116,12.034c-.352.288-.721.569-1.1.838a3.784,3.784,0,0,1-.9.345.606.606,0,0,1-.172.034.4.4,0,0,1-.386.313c-3.9.225-1.916,9.884-2.508,11.939-.5,1.725-.592,3.679-1.759,5.124-.9,1.107-12.923,8.1-12.65,8.526l4.187,7.343a77.5,77.5,0,0,0,12.256-1h9.2a5.977,5.977,0,0,1,.937-2.771c.97-3.234,2.335-5.646,3.432-8.625a17.973,17.973,0,0,0,.828-2.751.754.754,0,0,0-.2.056c1.264-3.252,2.234-6.682,4.117-9.648,1.313-2.068,2.651-4.122,3.931-6.21a2.835,2.835,0,0,0,.437-.693,15.232,15.232,0,0,1,5.3-4.686c.564-.325,5.683-2.318,5.683-2.672v.07c.157-.043.319-.084.479-.124,0-.07,0-.134,0-.2a28.513,28.513,0,0,0,3.545-2.265C4479.216,281.944,4473.213,277.912,4473.213,277.912Z"
						fill="#1a1311" fill-rule="evenodd" />
					<path id="Path_47894" data-name="Path 47894"
						d="M4448.6,313.756l4.47,15.088.692,4.635-29.133,3.728s-4.047-9.48-3.011-11.03,27.011-14.691,27.011-14.691"
						fill="#1a1311" />
					<path id="Path_47895" data-name="Path 47895"
						d="M4458.234,331.766a4.022,4.022,0,1,1-4-4.442A4.238,4.238,0,0,1,4458.234,331.766Z"
						fill="#1a1311" />
				</g>
			</g>
		</g>
	</g>
</svg>